<?xml version="1.0" encoding="UTF-8" standalone="no"?>
<!DOCTYPE svg PUBLIC "-//W3C//DTD SVG 1.1//EN"
 "http://www.w3.org/Graphics/SVG/1.1/DTD/svg11.dtd">
<!-- Generated by graphviz version 9.0.0 (20230911.1827)
 -->
<!-- Pages: 1 -->
<svg width="140pt" height="188pt"
 viewBox="0.00 0.00 140.10 188.00" xmlns="http://www.w3.org/2000/svg" xmlns:xlink="http://www.w3.org/1999/xlink">
<g id="graph0" class="graph" transform="scale(1 1) rotate(0) translate(4 184)">
<polygon fill="white" stroke="none" points="-4,4 -4,-184 136.1,-184 136.1,4 -4,4"/>
<!-- interest -->
<g id="node1" class="node">
<title>interest</title>
<ellipse fill="none" stroke="black" cx="74.09" cy="-162" rx="38.04" ry="18"/>
<text text-anchor="middle" x="74.09" y="-156.95" font-family="Times,serif" font-size="14.00">interest</text>
</g>
<!-- tutoring -->
<g id="node2" class="node">
<title>tutoring</title>
<ellipse fill="none" stroke="black" cx="40.09" cy="-90" rx="40.09" ry="18"/>
<text text-anchor="middle" x="40.09" y="-84.95" font-family="Times,serif" font-size="14.00">tutoring</text>
</g>
<!-- interest&#45;&gt;tutoring -->
<g id="edge1" class="edge">
<title>interest&#45;&gt;tutoring</title>
<path fill="none" stroke="black" d="M65.86,-144.05C62.06,-136.23 57.46,-126.75 53.19,-117.98"/>
<polygon fill="black" stroke="black" points="56.42,-116.62 48.91,-109.15 50.13,-119.67 56.42,-116.62"/>
</g>
<!-- performance -->
<g id="node3" class="node">
<title>performance</title>
<ellipse fill="none" stroke="black" cx="74.09" cy="-18" rx="58" ry="18"/>
<text text-anchor="middle" x="74.09" y="-12.95" font-family="Times,serif" font-size="14.00">performance</text>
</g>
<!-- interest&#45;&gt;performance -->
<g id="edge2" class="edge">
<title>interest&#45;&gt;performance</title>
<path fill="none" stroke="black" d="M80.17,-144.07C83.54,-133.79 87.38,-120.31 89.09,-108 91.29,-92.15 91.29,-87.85 89.09,-72 87.94,-63.73 85.83,-54.93 83.55,-46.93"/>
<polygon fill="black" stroke="black" points="86.9,-45.91 80.62,-37.38 80.21,-47.96 86.9,-45.91"/>
</g>
<!-- tutoring&#45;&gt;performance -->
<g id="edge3" class="edge">
<title>tutoring&#45;&gt;performance</title>
<path fill="none" stroke="black" d="M48.32,-72.05C52.07,-64.35 56.59,-55.03 60.8,-46.36"/>
<polygon fill="black" stroke="black" points="63.82,-48.16 65.04,-37.64 57.52,-45.1 63.82,-48.16"/>
</g>
</g>
</svg>