<?xml version="1.0" encoding="UTF-8" standalone="no"?>
<!DOCTYPE svg PUBLIC "-//W3C//DTD SVG 1.1//EN"
 "http://www.w3.org/Graphics/SVG/1.1/DTD/svg11.dtd">
<!-- Generated by graphviz version 9.0.0 (20230911.1827)
 -->
<!-- Title: G Pages: 1 -->
<svg width="365pt" height="310pt"
 viewBox="0.00 0.00 365.00 309.50" xmlns="http://www.w3.org/2000/svg" xmlns:xlink="http://www.w3.org/1999/xlink">
<g id="graph0" class="graph" transform="scale(1 1) rotate(0) translate(4 305.5)">
<title>G</title>
<polygon fill="white" stroke="none" points="-4,4 -4,-305.5 361,-305.5 361,4 -4,4"/>
<text text-anchor="middle" x="178.5" y="-284.2" font-family="Times,serif" font-size="14.00">Main Sources of Bias</text>
<g id="clust1" class="cluster">
<title>cluster_A</title>
<polygon fill="none" stroke="black" points="8,-16 8,-236.5 123,-236.5 123,-16 8,-16"/>
<text text-anchor="middle" x="65.5" y="-219.2" font-family="Times,serif" font-size="14.00">Confounding Bias</text>
</g>
<g id="clust2" class="cluster">
<title>cluster_B</title>
<polygon fill="none" stroke="black" points="131,-8 131,-269 349,-269 349,-8 131,-8"/>
<text text-anchor="middle" x="240" y="-251.7" font-family="Times,serif" font-size="14.00">Selection Bias</text>
</g>
<g id="clust3" class="cluster">
<title>cluster_B2</title>
<polygon fill="none" stroke="black" points="251,-16 251,-236.5 341,-236.5 341,-16 251,-16"/>
<text text-anchor="middle" x="296" y="-219.2" font-family="Times,serif" font-size="14.00">Mediator</text>
</g>
<g id="clust4" class="cluster">
<title>cluster_B1</title>
<polygon fill="none" stroke="black" points="139,-16 139,-236.5 243,-236.5 243,-16 139,-16"/>
<text text-anchor="middle" x="191" y="-219.2" font-family="Times,serif" font-size="14.00">Common Effect</text>
</g>
<!-- X -->
<g id="node1" class="node">
<title>X</title>
<ellipse fill="none" stroke="red" cx="65" cy="-186" rx="27" ry="18"/>
<text text-anchor="middle" x="65" y="-180.95" font-family="Times,serif" font-size="14.00">X</text>
</g>
<!-- T -->
<g id="node2" class="node">
<title>T</title>
<ellipse fill="none" stroke="black" cx="43" cy="-114" rx="27" ry="18"/>
<text text-anchor="middle" x="43" y="-108.95" font-family="Times,serif" font-size="14.00">T</text>
</g>
<!-- X&#45;&gt;T -->
<g id="edge1" class="edge">
<title>X&#45;&gt;T</title>
<path fill="none" stroke="black" d="M59.67,-168.05C57.27,-160.4 54.37,-151.16 51.66,-142.56"/>
<polygon fill="black" stroke="black" points="55.07,-141.72 48.73,-133.23 48.39,-143.82 55.07,-141.72"/>
</g>
<!-- Y -->
<g id="node3" class="node">
<title>Y</title>
<ellipse fill="none" stroke="black" cx="65" cy="-42" rx="27" ry="18"/>
<text text-anchor="middle" x="65" y="-36.95" font-family="Times,serif" font-size="14.00">Y</text>
</g>
<!-- X&#45;&gt;Y -->
<g id="edge3" class="edge">
<title>X&#45;&gt;Y</title>
<path fill="none" stroke="black" d="M70.68,-168.04C73.82,-157.74 77.41,-144.27 79,-132 81.06,-116.13 81.06,-111.87 79,-96 77.93,-87.76 75.96,-78.97 73.83,-70.97"/>
<polygon fill="black" stroke="black" points="77.21,-70.07 71.09,-61.42 70.48,-71.99 77.21,-70.07"/>
</g>
<!-- T&#45;&gt;Y -->
<g id="edge2" class="edge">
<title>T&#45;&gt;Y</title>
<path fill="none" stroke="black" d="M48.33,-96.05C50.73,-88.4 53.63,-79.16 56.34,-70.56"/>
<polygon fill="black" stroke="black" points="59.61,-71.82 59.27,-61.23 52.93,-69.72 59.61,-71.82"/>
</g>
<!-- T3 -->
<g id="node4" class="node">
<title>T3</title>
<ellipse fill="none" stroke="black" cx="296" cy="-186" rx="27" ry="18"/>
<text text-anchor="middle" x="296" y="-180.95" font-family="Times,serif" font-size="14.00">T</text>
</g>
<!-- Y3 -->
<g id="node5" class="node">
<title>Y3</title>
<ellipse fill="none" stroke="black" cx="296" cy="-42" rx="27" ry="18"/>
<text text-anchor="middle" x="296" y="-36.95" font-family="Times,serif" font-size="14.00">Y</text>
</g>
<!-- T3&#45;&gt;Y3 -->
<g id="edge6" class="edge">
<title>T3&#45;&gt;Y3</title>
<path fill="none" stroke="black" d="M285.76,-169.02C279.88,-158.86 273.06,-145.18 270,-132 266.38,-116.41 266.38,-111.59 270,-96 272.15,-86.73 276.16,-77.22 280.4,-68.86"/>
<polygon fill="black" stroke="black" points="283.34,-70.77 285.04,-60.31 277.19,-67.43 283.34,-70.77"/>
</g>
<!-- X3 -->
<g id="node6" class="node">
<title>X3</title>
<ellipse fill="gray" stroke="red" cx="306" cy="-114" rx="27" ry="18"/>
<text text-anchor="middle" x="306" y="-108.95" font-family="Times,serif" font-size="14.00">X</text>
</g>
<!-- T3&#45;&gt;X3 -->
<g id="edge5" class="edge">
<title>T3&#45;&gt;X3</title>
<path fill="none" stroke="black" d="M298.47,-167.7C299.53,-160.32 300.78,-151.52 301.96,-143.25"/>
<polygon fill="black" stroke="black" points="305.39,-144 303.34,-133.6 298.46,-143.01 305.39,-144"/>
</g>
<!-- X3&#45;&gt;Y3 -->
<g id="edge4" class="edge">
<title>X3&#45;&gt;Y3</title>
<path fill="none" stroke="black" d="M303.53,-95.7C302.47,-88.32 301.22,-79.52 300.04,-71.25"/>
<polygon fill="black" stroke="black" points="303.54,-71.01 298.66,-61.6 296.61,-72 303.54,-71.01"/>
</g>
<!-- T2 -->
<g id="node7" class="node">
<title>T2</title>
<ellipse fill="none" stroke="black" cx="191" cy="-186" rx="27" ry="18"/>
<text text-anchor="middle" x="191" y="-180.95" font-family="Times,serif" font-size="14.00">T</text>
</g>
<!-- Y2 -->
<g id="node8" class="node">
<title>Y2</title>
<ellipse fill="none" stroke="black" cx="174" cy="-114" rx="27" ry="18"/>
<text text-anchor="middle" x="174" y="-108.95" font-family="Times,serif" font-size="14.00">Y</text>
</g>
<!-- T2&#45;&gt;Y2 -->
<g id="edge7" class="edge">
<title>T2&#45;&gt;Y2</title>
<path fill="none" stroke="black" d="M186.88,-168.05C185.07,-160.6 182.9,-151.64 180.85,-143.22"/>
<polygon fill="black" stroke="black" points="184.31,-142.64 178.55,-133.75 177.51,-144.29 184.31,-142.64"/>
</g>
<!-- X2 -->
<g id="node9" class="node">
<title>X2</title>
<ellipse fill="gray" stroke="red" cx="191" cy="-42" rx="27" ry="18"/>
<text text-anchor="middle" x="191" y="-36.95" font-family="Times,serif" font-size="14.00">X</text>
</g>
<!-- T2&#45;&gt;X2 -->
<g id="edge9" class="edge">
<title>T2&#45;&gt;X2</title>
<path fill="none" stroke="black" d="M198.5,-168.69C202.81,-158.41 207.79,-144.71 210,-132 212.74,-116.24 212.74,-111.76 210,-96 208.48,-87.26 205.65,-78.06 202.63,-69.82"/>
<polygon fill="black" stroke="black" points="205.97,-68.74 199.05,-60.72 199.46,-71.31 205.97,-68.74"/>
</g>
<!-- Y2&#45;&gt;X2 -->
<g id="edge8" class="edge">
<title>Y2&#45;&gt;X2</title>
<path fill="none" stroke="black" d="M178.12,-96.05C179.93,-88.6 182.1,-79.64 184.15,-71.22"/>
<polygon fill="black" stroke="black" points="187.49,-72.29 186.45,-61.75 180.69,-70.64 187.49,-72.29"/>
</g>
</g>
</svg>