<?xml version="1.0" encoding="UTF-8" standalone="no"?>
<!DOCTYPE svg PUBLIC "-//W3C//DTD SVG 1.1//EN"
 "http://www.w3.org/Graphics/SVG/1.1/DTD/svg11.dtd">
<!-- Generated by graphviz version 9.0.0 (20230911.1827)
 -->
<!-- Pages: 1 -->
<svg width="215pt" height="188pt"
 viewBox="0.00 0.00 214.53 188.00" xmlns="http://www.w3.org/2000/svg" xmlns:xlink="http://www.w3.org/1999/xlink">
<g id="graph0" class="graph" transform="scale(1 1) rotate(0) translate(4 184)">
<polygon fill="white" stroke="none" points="-4,4 -4,-184 210.53,-184 210.53,4 -4,4"/>
<!-- X -->
<g id="node1" class="node">
<title>X</title>
<ellipse fill="none" stroke="black" cx="71" cy="-162" rx="27" ry="18"/>
<text text-anchor="middle" x="71" y="-156.95" font-family="Times,serif" font-size="14.00">X</text>
</g>
<!-- T -->
<g id="node2" class="node">
<title>T</title>
<ellipse fill="none" stroke="black" cx="27" cy="-90" rx="27" ry="18"/>
<text text-anchor="middle" x="27" y="-84.95" font-family="Times,serif" font-size="14.00">T</text>
</g>
<!-- X&#45;&gt;T -->
<g id="edge1" class="edge">
<title>X&#45;&gt;T</title>
<path fill="none" stroke="black" d="M61.02,-145.12C55.67,-136.61 48.96,-125.94 42.92,-116.32"/>
<polygon fill="black" stroke="black" points="46.04,-114.71 37.75,-108.1 40.11,-118.43 46.04,-114.71"/>
</g>
<!-- Y -->
<g id="node3" class="node">
<title>Y</title>
<ellipse fill="none" stroke="black" cx="65" cy="-18" rx="27" ry="18"/>
<text text-anchor="middle" x="65" y="-12.95" font-family="Times,serif" font-size="14.00">Y</text>
</g>
<!-- X&#45;&gt;Y -->
<g id="edge2" class="edge">
<title>X&#45;&gt;Y</title>
<path fill="none" stroke="black" d="M70.26,-143.59C69.25,-119.61 67.41,-76.14 66.2,-47.42"/>
<polygon fill="black" stroke="black" points="69.71,-47.47 65.79,-37.62 62.71,-47.76 69.71,-47.47"/>
</g>
<!-- T&#45;&gt;Y -->
<g id="edge3" class="edge">
<title>T&#45;&gt;Y</title>
<path fill="none" stroke="black" d="M35.81,-72.76C40.27,-64.55 45.8,-54.37 50.84,-45.09"/>
<polygon fill="black" stroke="black" points="53.82,-46.94 55.51,-36.48 47.67,-43.6 53.82,-46.94"/>
</g>
<!-- gene -->
<g id="node4" class="node">
<title>gene</title>
<ellipse fill="none" stroke="black" cx="163" cy="-162" rx="28.32" ry="18"/>
<text text-anchor="middle" x="163" y="-156.95" font-family="Times,serif" font-size="14.00">gene</text>
</g>
<!-- habit -->
<g id="node5" class="node">
<title>habit</title>
<ellipse fill="none" stroke="black" cx="152" cy="-90" rx="29.34" ry="18"/>
<text text-anchor="middle" x="152" y="-84.95" font-family="Times,serif" font-size="14.00">habit</text>
</g>
<!-- gene&#45;&gt;habit -->
<g id="edge4" class="edge">
<title>gene&#45;&gt;habit</title>
<path fill="none" stroke="black" d="M160.28,-143.7C159.12,-136.32 157.74,-127.52 156.44,-119.25"/>
<polygon fill="black" stroke="black" points="159.93,-118.93 154.92,-109.6 153.02,-120.02 159.93,-118.93"/>
</g>
<!-- disease -->
<g id="node6" class="node">
<title>disease</title>
<ellipse fill="none" stroke="black" cx="169" cy="-18" rx="37.53" ry="18"/>
<text text-anchor="middle" x="169" y="-12.95" font-family="Times,serif" font-size="14.00">disease</text>
</g>
<!-- gene&#45;&gt;disease -->
<g id="edge6" class="edge">
<title>gene&#45;&gt;disease</title>
<path fill="none" stroke="black" d="M173.63,-145.07C179.74,-134.93 186.82,-121.25 190,-108 193.73,-92.44 193,-87.72 190,-72 188.34,-63.31 185.28,-54.23 182,-46.09"/>
<polygon fill="black" stroke="black" points="185.29,-44.87 178.1,-37.08 178.86,-47.65 185.29,-44.87"/>
</g>
<!-- habit&#45;&gt;disease -->
<g id="edge5" class="edge">
<title>habit&#45;&gt;disease</title>
<path fill="none" stroke="black" d="M156.2,-71.7C157.99,-64.32 160.13,-55.52 162.14,-47.25"/>
<polygon fill="black" stroke="black" points="165.53,-48.12 164.49,-37.58 158.73,-46.47 165.53,-48.12"/>
</g>
</g>
</svg>