<?xml version="1.0" encoding="UTF-8" standalone="no"?>
<!DOCTYPE svg PUBLIC "-//W3C//DTD SVG 1.1//EN"
 "http://www.w3.org/Graphics/SVG/1.1/DTD/svg11.dtd">
<!-- Generated by graphviz version 9.0.0 (20230911.1827)
 -->
<!-- Pages: 1 -->
<svg width="206pt" height="188pt"
 viewBox="0.00 0.00 206.00 188.00" xmlns="http://www.w3.org/2000/svg" xmlns:xlink="http://www.w3.org/1999/xlink">
<g id="graph0" class="graph" transform="scale(1 1) rotate(0) translate(4 184)">
<polygon fill="white" stroke="none" points="-4,4 -4,-184 202,-184 202,4 -4,4"/>
<!-- C -->
<g id="node1" class="node">
<title>C</title>
<ellipse fill="none" stroke="black" cx="99" cy="-162" rx="27" ry="18"/>
<text text-anchor="middle" x="99" y="-156.95" font-family="Times,serif" font-size="14.00">C</text>
</g>
<!-- A -->
<g id="node2" class="node">
<title>A</title>
<ellipse fill="none" stroke="black" cx="27" cy="-90" rx="27" ry="18"/>
<text text-anchor="middle" x="27" y="-84.95" font-family="Times,serif" font-size="14.00">A</text>
</g>
<!-- C&#45;&gt;A -->
<g id="edge1" class="edge">
<title>C&#45;&gt;A</title>
<path fill="none" stroke="black" d="M80.81,-148.49C69.88,-139.21 56.2,-126.28 45.27,-115.03"/>
<polygon fill="black" stroke="black" points="47.99,-112.81 38.58,-107.95 42.9,-117.62 47.99,-112.81"/>
</g>
<!-- B -->
<g id="node3" class="node">
<title>B</title>
<ellipse fill="none" stroke="black" cx="99" cy="-90" rx="27" ry="18"/>
<text text-anchor="middle" x="99" y="-84.95" font-family="Times,serif" font-size="14.00">B</text>
</g>
<!-- C&#45;&gt;B -->
<g id="edge2" class="edge">
<title>C&#45;&gt;B</title>
<path fill="none" stroke="red" stroke-dasharray="5,2" d="M92.36,-132.69C92.21,-128.2 92.21,-123.56 92.37,-119.07"/>
<polygon fill="red" stroke="red" points="88.86,-132.8 93.02,-142.54 95.84,-132.33 88.86,-132.8"/>
<polygon fill="red" stroke="red" points="95.85,-119.51 93.04,-109.3 88.86,-119.04 95.85,-119.51"/>
</g>
<!-- C&#45;&gt;B -->
<g id="edge3" class="edge">
<title>C&#45;&gt;B</title>
<path fill="none" stroke="black" d="M104.88,-144.05C105.67,-136.57 105.92,-127.58 105.63,-119.14"/>
<polygon fill="black" stroke="black" points="109.13,-119.04 104.96,-109.3 102.15,-119.51 109.13,-119.04"/>
</g>
<!-- A&#45;&gt;C -->
<g id="edge10" class="edge">
<title>A&#45;&gt;C</title>
<path fill="none" stroke="red" stroke-dasharray="5,2" d="M53.86,-111.11C62.81,-119.17 72.53,-128.53 80.71,-136.95"/>
<polygon fill="red" stroke="red" points="56.21,-108.51 46.38,-104.56 51.6,-113.78 56.21,-108.51"/>
<polygon fill="red" stroke="red" points="77.97,-139.15 87.38,-144.02 83.06,-134.34 77.97,-139.15"/>
</g>
<!-- G -->
<g id="node7" class="node">
<title>G</title>
<ellipse fill="none" stroke="black" cx="27" cy="-18" rx="27" ry="18"/>
<text text-anchor="middle" x="27" y="-12.95" font-family="Times,serif" font-size="14.00">G</text>
</g>
<!-- A&#45;&gt;G -->
<g id="edge9" class="edge">
<title>A&#45;&gt;G</title>
<path fill="none" stroke="black" d="M27,-71.7C27,-64.41 27,-55.73 27,-47.54"/>
<polygon fill="black" stroke="black" points="30.5,-47.62 27,-37.62 23.5,-47.62 30.5,-47.62"/>
</g>
<!-- E -->
<g id="node5" class="node">
<title>E</title>
<ellipse fill="gray" stroke="gray" cx="135" cy="-18" rx="27" ry="18"/>
<text text-anchor="middle" x="135" y="-12.95" font-family="Times,serif" font-size="14.00">E</text>
</g>
<!-- B&#45;&gt;E -->
<g id="edge5" class="edge">
<title>B&#45;&gt;E</title>
<path fill="none" stroke="black" d="M101.98,-71.7C105.47,-63.22 110.6,-52.88 115.87,-43.6"/>
<polygon fill="black" stroke="black" points="118.87,-45.41 121.02,-35.04 112.87,-41.8 118.87,-45.41"/>
</g>
<!-- B&#45;&gt;E -->
<g id="edge6" class="edge">
<title>B&#45;&gt;E</title>
<path fill="none" stroke="red" stroke-dasharray="5,2" d="M118.18,-64.31C121.47,-58.52 124.69,-52.32 127.5,-46.43"/>
<polygon fill="red" stroke="red" points="115.2,-62.48 113.05,-72.86 121.2,-66.08 115.2,-62.48"/>
<polygon fill="red" stroke="red" points="130.53,-48.23 131.41,-37.67 124.14,-45.38 130.53,-48.23"/>
</g>
<!-- D -->
<g id="node4" class="node">
<title>D</title>
<ellipse fill="none" stroke="black" cx="27" cy="-162" rx="27" ry="18"/>
<text text-anchor="middle" x="27" y="-156.95" font-family="Times,serif" font-size="14.00">D</text>
</g>
<!-- D&#45;&gt;A -->
<g id="edge4" class="edge">
<title>D&#45;&gt;A</title>
<path fill="none" stroke="black" d="M27,-143.7C27,-136.41 27,-127.73 27,-119.54"/>
<polygon fill="black" stroke="black" points="30.5,-119.62 27,-109.62 23.5,-119.62 30.5,-119.62"/>
</g>
<!-- F -->
<g id="node6" class="node">
<title>F</title>
<ellipse fill="none" stroke="black" cx="171" cy="-90" rx="27" ry="18"/>
<text text-anchor="middle" x="171" y="-84.95" font-family="Times,serif" font-size="14.00">F</text>
</g>
<!-- F&#45;&gt;E -->
<g id="edge7" class="edge">
<title>F&#45;&gt;E</title>
<path fill="none" stroke="red" stroke-dasharray="5,2" d="M151.82,-64.31C148.53,-58.52 145.31,-52.32 142.5,-46.43"/>
<polygon fill="red" stroke="red" points="148.8,-66.08 156.95,-72.86 154.8,-62.48 148.8,-66.08"/>
<polygon fill="red" stroke="red" points="145.86,-45.38 138.59,-37.67 139.47,-48.23 145.86,-45.38"/>
</g>
<!-- F&#45;&gt;E -->
<g id="edge8" class="edge">
<title>F&#45;&gt;E</title>
<path fill="none" stroke="black" d="M168.02,-71.7C164.53,-63.22 159.4,-52.88 154.13,-43.6"/>
<polygon fill="black" stroke="black" points="157.13,-41.8 148.98,-35.04 151.13,-45.41 157.13,-41.8"/>
</g>
</g>
</svg>