<?xml version="1.0" encoding="UTF-8" standalone="no"?>
<!DOCTYPE svg PUBLIC "-//W3C//DTD SVG 1.1//EN"
 "http://www.w3.org/Graphics/SVG/1.1/DTD/svg11.dtd">
<!-- Generated by graphviz version 9.0.0 (20230911.1827)
 -->
<!-- Title: G Pages: 1 -->
<svg width="754pt" height="269pt"
 viewBox="0.00 0.00 754.00 269.00" xmlns="http://www.w3.org/2000/svg" xmlns:xlink="http://www.w3.org/1999/xlink">
<g id="graph0" class="graph" transform="scale(1 1) rotate(0) translate(4 265)">
<title>G</title>
<polygon fill="white" stroke="none" points="-4,4 -4,-265 750,-265 750,4 -4,4"/>
<text text-anchor="middle" x="373" y="-243.7" font-family="Times,serif" font-size="14.00">Dependence Flow Cheat Sheet</text>
<g id="clust1" class="cluster">
<title>cluster_A</title>
<polygon fill="none" stroke="black" points="8,-8 8,-228.5 150,-228.5 150,-8 8,-8"/>
<text text-anchor="middle" x="79" y="-211.2" font-family="Times,serif" font-size="14.00">Chains</text>
</g>
<g id="clust2" class="cluster">
<title>cluster_C</title>
<polygon fill="none" stroke="black" points="158,-80 158,-228.5 444,-228.5 444,-80 158,-80"/>
<text text-anchor="middle" x="301" y="-211.2" font-family="Times,serif" font-size="14.00">Forks</text>
</g>
<g id="clust3" class="cluster">
<title>cluster_B</title>
<polygon fill="none" stroke="black" points="452,-80 452,-228.5 738,-228.5 738,-80 452,-80"/>
<text text-anchor="middle" x="595" y="-211.2" font-family="Times,serif" font-size="14.00">Colliders</text>
</g>
<!-- 3A2 -->
<g id="node1" class="node">
<title>3A2</title>
<ellipse fill="none" stroke="black" cx="115" cy="-178" rx="27" ry="18"/>
<text text-anchor="middle" x="115" y="-172.95" font-family="Times,serif" font-size="14.00">A</text>
</g>
<!-- 3B2 -->
<g id="node2" class="node">
<title>3B2</title>
<ellipse fill="gray" stroke="gray" cx="115" cy="-106" rx="27" ry="18"/>
<text text-anchor="middle" x="115" y="-100.95" font-family="Times,serif" font-size="14.00">B</text>
</g>
<!-- 3A2&#45;&gt;3B2 -->
<g id="edge1" class="edge">
<title>3A2&#45;&gt;3B2</title>
<path fill="none" stroke="black" d="M109.12,-160.05C108.33,-152.57 108.08,-143.58 108.37,-135.14"/>
<polygon fill="black" stroke="black" points="111.85,-135.51 109.04,-125.3 104.87,-135.04 111.85,-135.51"/>
</g>
<!-- 3A2&#45;&gt;3B2 -->
<g id="edge3" class="edge">
<title>3A2&#45;&gt;3B2</title>
<path fill="none" stroke="red" stroke-dasharray="5,2" d="M120.88,-160.05C121.88,-150.6 122.02,-138.72 121.29,-128.6"/>
<polygon fill="red" stroke="red" points="115.97,-125.23 125.93,-124.34 126.11,-126.33 116.15,-127.22 115.97,-125.23"/>
<polyline fill="none" stroke="red" points="120.86,-123.79 121.3,-128.77"/>
</g>
<!-- 3C2 -->
<g id="node3" class="node">
<title>3C2</title>
<ellipse fill="none" stroke="black" cx="115" cy="-34" rx="27" ry="18"/>
<text text-anchor="middle" x="115" y="-28.95" font-family="Times,serif" font-size="14.00">C</text>
</g>
<!-- 3B2&#45;&gt;3C2 -->
<g id="edge2" class="edge">
<title>3B2&#45;&gt;3C2</title>
<path fill="none" stroke="black" d="M109.12,-88.05C108.33,-80.57 108.08,-71.58 108.37,-63.14"/>
<polygon fill="black" stroke="black" points="111.85,-63.51 109.04,-53.3 104.87,-63.04 111.85,-63.51"/>
</g>
<!-- 3B2&#45;&gt;3C2 -->
<g id="edge4" class="edge">
<title>3B2&#45;&gt;3C2</title>
<path fill="none" stroke="red" stroke-dasharray="5,2" d="M121.3,-83.24C122.02,-73.1 121.87,-61.22 120.86,-51.79"/>
<polygon fill="red" stroke="red" points="125.95,-87.5 115.98,-86.62 116.16,-84.63 126.12,-85.5 125.95,-87.5"/>
<polyline fill="none" stroke="red" points="120.88,-88.05 121.32,-83.07"/>
</g>
<!-- 3A -->
<g id="node4" class="node">
<title>3A</title>
<ellipse fill="none" stroke="black" cx="43" cy="-178" rx="27" ry="18"/>
<text text-anchor="middle" x="43" y="-172.95" font-family="Times,serif" font-size="14.00">A</text>
</g>
<!-- 3B -->
<g id="node5" class="node">
<title>3B</title>
<ellipse fill="none" stroke="black" cx="43" cy="-106" rx="27" ry="18"/>
<text text-anchor="middle" x="43" y="-100.95" font-family="Times,serif" font-size="14.00">B</text>
</g>
<!-- 3A&#45;&gt;3B -->
<g id="edge5" class="edge">
<title>3A&#45;&gt;3B</title>
<path fill="none" stroke="black" d="M37.12,-160.05C36.33,-152.57 36.08,-143.58 36.37,-135.14"/>
<polygon fill="black" stroke="black" points="39.85,-135.51 37.04,-125.3 32.87,-135.04 39.85,-135.51"/>
</g>
<!-- 3A&#45;&gt;3B -->
<g id="edge7" class="edge">
<title>3A&#45;&gt;3B</title>
<path fill="none" stroke="red" stroke-dasharray="5,2" d="M49.64,-148.69C49.79,-144.2 49.79,-139.56 49.63,-135.07"/>
<polygon fill="red" stroke="red" points="46.16,-148.33 48.98,-158.54 53.14,-148.8 46.16,-148.33"/>
<polygon fill="red" stroke="red" points="53.14,-135.04 48.96,-125.3 46.15,-135.51 53.14,-135.04"/>
</g>
<!-- 3C -->
<g id="node6" class="node">
<title>3C</title>
<ellipse fill="none" stroke="black" cx="43" cy="-34" rx="27" ry="18"/>
<text text-anchor="middle" x="43" y="-28.95" font-family="Times,serif" font-size="14.00">C</text>
</g>
<!-- 3B&#45;&gt;3C -->
<g id="edge6" class="edge">
<title>3B&#45;&gt;3C</title>
<path fill="none" stroke="black" d="M37.12,-88.05C36.33,-80.57 36.08,-71.58 36.37,-63.14"/>
<polygon fill="black" stroke="black" points="39.85,-63.51 37.04,-53.3 32.87,-63.04 39.85,-63.51"/>
</g>
<!-- 3B&#45;&gt;3C -->
<g id="edge8" class="edge">
<title>3B&#45;&gt;3C</title>
<path fill="none" stroke="red" stroke-dasharray="5,2" d="M49.64,-76.69C49.79,-72.2 49.79,-67.56 49.63,-63.07"/>
<polygon fill="red" stroke="red" points="46.16,-76.33 48.98,-86.54 53.14,-76.8 46.16,-76.33"/>
<polygon fill="red" stroke="red" points="53.14,-63.04 48.96,-53.3 46.15,-63.51 53.14,-63.04"/>
</g>
<!-- 2A2 -->
<g id="node7" class="node">
<title>2A2</title>
<ellipse fill="none" stroke="black" cx="337" cy="-106" rx="27" ry="18"/>
<text text-anchor="middle" x="337" y="-100.95" font-family="Times,serif" font-size="14.00">A</text>
</g>
<!-- 2B2 -->
<g id="node8" class="node">
<title>2B2</title>
<ellipse fill="gray" stroke="gray" cx="373" cy="-178" rx="27" ry="18"/>
<text text-anchor="middle" x="373" y="-172.95" font-family="Times,serif" font-size="14.00">B</text>
</g>
<!-- 2B2&#45;&gt;2A2 -->
<g id="edge9" class="edge">
<title>2B2&#45;&gt;2A2</title>
<path fill="none" stroke="red" stroke-dasharray="5,2" d="M357.21,-158.1C350.84,-147.57 344.2,-134.55 339.98,-124.29"/>
<polygon fill="red" stroke="red" points="363.45,-158.67 354.95,-163.94 353.9,-162.25 362.39,-156.97 363.45,-158.67"/>
<polyline fill="none" stroke="red" points="359.73,-162.15 357.09,-157.91"/>
</g>
<!-- 2B2&#45;&gt;2A2 -->
<g id="edge10" class="edge">
<title>2B2&#45;&gt;2A2</title>
<path fill="none" stroke="black" d="M370.02,-159.7C366.53,-151.22 361.4,-140.88 356.13,-131.6"/>
<polygon fill="black" stroke="black" points="359.13,-129.8 350.98,-123.04 353.13,-133.41 359.13,-129.8"/>
</g>
<!-- 2C2 -->
<g id="node9" class="node">
<title>2C2</title>
<ellipse fill="none" stroke="black" cx="409" cy="-106" rx="27" ry="18"/>
<text text-anchor="middle" x="409" y="-100.95" font-family="Times,serif" font-size="14.00">C</text>
</g>
<!-- 2B2&#45;&gt;2C2 -->
<g id="edge11" class="edge">
<title>2B2&#45;&gt;2C2</title>
<path fill="none" stroke="black" d="M375.98,-159.7C379.47,-151.22 384.6,-140.88 389.87,-131.6"/>
<polygon fill="black" stroke="black" points="392.87,-133.41 395.02,-123.04 386.87,-129.8 392.87,-133.41"/>
</g>
<!-- 2B2&#45;&gt;2C2 -->
<g id="edge12" class="edge">
<title>2B2&#45;&gt;2C2</title>
<path fill="none" stroke="red" stroke-dasharray="5,2" d="M388.79,-158.1C395.16,-147.57 401.8,-134.55 406.02,-124.29"/>
<polygon fill="red" stroke="red" points="391.05,-163.94 382.55,-158.67 383.61,-156.97 392.1,-162.25 391.05,-163.94"/>
<polyline fill="none" stroke="red" points="386.27,-162.15 388.91,-157.91"/>
</g>
<!-- 2A -->
<g id="node10" class="node">
<title>2A</title>
<ellipse fill="none" stroke="black" cx="193" cy="-106" rx="27" ry="18"/>
<text text-anchor="middle" x="193" y="-100.95" font-family="Times,serif" font-size="14.00">A</text>
</g>
<!-- 2B -->
<g id="node11" class="node">
<title>2B</title>
<ellipse fill="none" stroke="black" cx="229" cy="-178" rx="27" ry="18"/>
<text text-anchor="middle" x="229" y="-172.95" font-family="Times,serif" font-size="14.00">B</text>
</g>
<!-- 2B&#45;&gt;2A -->
<g id="edge14" class="edge">
<title>2B&#45;&gt;2A</title>
<path fill="none" stroke="black" d="M215.73,-162.15C210.64,-154.19 205.13,-144.12 200.66,-134.77"/>
<polygon fill="black" stroke="black" points="203.87,-133.38 196.6,-125.67 197.48,-136.23 203.87,-133.38"/>
</g>
<!-- 2B&#45;&gt;2A -->
<g id="edge16" class="edge">
<title>2B&#45;&gt;2A</title>
<path fill="none" stroke="red" stroke-dasharray="5,2" d="M221.46,-149.49C218.64,-143.57 215.4,-137.36 212.11,-131.56"/>
<polygon fill="red" stroke="red" points="218.13,-150.61 225.4,-158.31 224.52,-147.76 218.13,-150.61"/>
<polygon fill="red" stroke="red" points="215.13,-129.8 206.98,-123.04 209.13,-133.41 215.13,-129.8"/>
</g>
<!-- 2C -->
<g id="node12" class="node">
<title>2C</title>
<ellipse fill="none" stroke="black" cx="265" cy="-106" rx="27" ry="18"/>
<text text-anchor="middle" x="265" y="-100.95" font-family="Times,serif" font-size="14.00">C</text>
</g>
<!-- 2B&#45;&gt;2C -->
<g id="edge13" class="edge">
<title>2B&#45;&gt;2C</title>
<path fill="none" stroke="red" stroke-dasharray="5,2" d="M236.54,-149.49C239.36,-143.57 242.6,-137.36 245.89,-131.56"/>
<polygon fill="red" stroke="red" points="233.48,-147.76 232.6,-158.31 239.87,-150.61 233.48,-147.76"/>
<polygon fill="red" stroke="red" points="248.87,-133.41 251.02,-123.04 242.87,-129.8 248.87,-133.41"/>
</g>
<!-- 2B&#45;&gt;2C -->
<g id="edge15" class="edge">
<title>2B&#45;&gt;2C</title>
<path fill="none" stroke="black" d="M242.27,-162.15C247.36,-154.19 252.87,-144.12 257.34,-134.77"/>
<polygon fill="black" stroke="black" points="260.52,-136.23 261.4,-125.67 254.13,-133.38 260.52,-136.23"/>
</g>
<!-- A2 -->
<g id="node13" class="node">
<title>A2</title>
<ellipse fill="none" stroke="black" cx="703" cy="-178" rx="27" ry="18"/>
<text text-anchor="middle" x="703" y="-172.95" font-family="Times,serif" font-size="14.00">A</text>
</g>
<!-- B2 -->
<g id="node14" class="node">
<title>B2</title>
<ellipse fill="gray" stroke="gray" cx="649" cy="-106" rx="27" ry="18"/>
<text text-anchor="middle" x="649" y="-100.95" font-family="Times,serif" font-size="14.00">B</text>
</g>
<!-- A2&#45;&gt;B2 -->
<g id="edge18" class="edge">
<title>A2&#45;&gt;B2</title>
<path fill="none" stroke="black" d="M686.83,-163.17C679.05,-154.6 669.99,-143.3 662.58,-133.1"/>
<polygon fill="black" stroke="black" points="665.53,-131.21 656.94,-125.01 659.79,-135.21 665.53,-131.21"/>
</g>
<!-- A2&#45;&gt;B2 -->
<g id="edge20" class="edge">
<title>A2&#45;&gt;B2</title>
<path fill="none" stroke="red" stroke-dasharray="5,2" d="M689.49,-151C684.23,-143.75 678.14,-135.96 672.26,-128.97"/>
<polygon fill="red" stroke="red" points="686.59,-152.96 695.18,-159.17 692.34,-148.96 686.59,-152.96"/>
<polygon fill="red" stroke="red" points="675.21,-127.03 666,-121.79 669.94,-131.63 675.21,-127.03"/>
</g>
<!-- C2 -->
<g id="node15" class="node">
<title>C2</title>
<ellipse fill="none" stroke="black" cx="631" cy="-178" rx="27" ry="18"/>
<text text-anchor="middle" x="631" y="-172.95" font-family="Times,serif" font-size="14.00">C</text>
</g>
<!-- C2&#45;&gt;B2 -->
<g id="edge17" class="edge">
<title>C2&#45;&gt;B2</title>
<path fill="none" stroke="red" stroke-dasharray="5,2" d="M631.69,-148.47C632.78,-143.62 634.1,-138.59 635.53,-133.78"/>
<polygon fill="red" stroke="red" points="628.27,-147.73 629.82,-158.21 635.14,-149.05 628.27,-147.73"/>
<polygon fill="red" stroke="red" points="638.76,-135.17 638.58,-124.58 632.11,-132.97 638.76,-135.17"/>
</g>
<!-- C2&#45;&gt;B2 -->
<g id="edge19" class="edge">
<title>C2&#45;&gt;B2</title>
<path fill="none" stroke="black" d="M640.98,-160.76C643.77,-153.21 646.41,-144 648.35,-135.36"/>
<polygon fill="black" stroke="black" points="651.77,-136.09 650.21,-125.61 644.9,-134.78 651.77,-136.09"/>
</g>
<!-- A -->
<g id="node16" class="node">
<title>A</title>
<ellipse fill="none" stroke="black" cx="559" cy="-178" rx="27" ry="18"/>
<text text-anchor="middle" x="559" y="-172.95" font-family="Times,serif" font-size="14.00">A</text>
</g>
<!-- B -->
<g id="node17" class="node">
<title>B</title>
<ellipse fill="none" stroke="black" cx="541" cy="-106" rx="27" ry="18"/>
<text text-anchor="middle" x="541" y="-100.95" font-family="Times,serif" font-size="14.00">B</text>
</g>
<!-- A&#45;&gt;B -->
<g id="edge22" class="edge">
<title>A&#45;&gt;B</title>
<path fill="none" stroke="black" d="M549.02,-160.76C546.23,-153.21 543.59,-144 541.65,-135.36"/>
<polygon fill="black" stroke="black" points="545.1,-134.78 539.79,-125.61 538.23,-136.09 545.1,-134.78"/>
</g>
<!-- A&#45;&gt;B -->
<g id="edge24" class="edge">
<title>A&#45;&gt;B</title>
<path fill="none" stroke="red" stroke-dasharray="5,2" d="M560.47,-159.7C558.97,-150.01 555.95,-137.86 552.54,-127.67"/>
<polygon fill="red" stroke="red" points="546.56,-125.75 555.99,-122.43 556.65,-124.31 547.22,-127.63 546.56,-125.75"/>
<polyline fill="none" stroke="red" points="550.94,-123.14 552.6,-127.86"/>
</g>
<!-- C -->
<g id="node18" class="node">
<title>C</title>
<ellipse fill="none" stroke="black" cx="487" cy="-178" rx="27" ry="18"/>
<text text-anchor="middle" x="487" y="-172.95" font-family="Times,serif" font-size="14.00">C</text>
</g>
<!-- C&#45;&gt;B -->
<g id="edge21" class="edge">
<title>C&#45;&gt;B</title>
<path fill="none" stroke="red" stroke-dasharray="5,2" d="M493.96,-160.41C501.17,-149.51 512.12,-135.29 521.78,-124.26"/>
<polygon fill="red" stroke="red" points="520.59,-118.07 528.06,-124.72 526.73,-126.22 519.26,-119.56 520.59,-118.07"/>
<polyline fill="none" stroke="red" points="524.99,-120.65 521.66,-124.38"/>
</g>
<!-- C&#45;&gt;B -->
<g id="edge23" class="edge">
<title>C&#45;&gt;B</title>
<path fill="none" stroke="black" d="M503.17,-163.17C510.95,-154.6 520.01,-143.3 527.42,-133.1"/>
<polygon fill="black" stroke="black" points="530.21,-135.21 533.06,-125.01 524.47,-131.21 530.21,-135.21"/>
</g>
</g>
</svg>