<?xml version="1.0" encoding="UTF-8" standalone="no"?>
<!DOCTYPE svg PUBLIC "-//W3C//DTD SVG 1.1//EN"
 "http://www.w3.org/Graphics/SVG/1.1/DTD/svg11.dtd">
<!-- Generated by graphviz version 9.0.0 (20230911.1827)
 -->
<!-- Pages: 1 -->
<svg width="454pt" height="116pt"
 viewBox="0.00 0.00 454.18 116.00" xmlns="http://www.w3.org/2000/svg" xmlns:xlink="http://www.w3.org/1999/xlink">
<g id="graph0" class="graph" transform="scale(1 1) rotate(0) translate(4 112)">
<polygon fill="white" stroke="none" points="-4,4 -4,-112 450.18,-112 450.18,4 -4,4"/>
<!-- A -->
<g id="node1" class="node">
<title>A</title>
<ellipse fill="none" stroke="black" cx="27" cy="-90" rx="27" ry="18"/>
<text text-anchor="middle" x="27" y="-84.95" font-family="Times,serif" font-size="14.00">A</text>
</g>
<!-- B -->
<g id="node2" class="node">
<title>B</title>
<ellipse fill="gray" stroke="gray" cx="80" cy="-18" rx="27" ry="18"/>
<text text-anchor="middle" x="80" y="-12.95" font-family="Times,serif" font-size="14.00">B</text>
</g>
<!-- A&#45;&gt;B -->
<g id="edge1" class="edge">
<title>A&#45;&gt;B</title>
<path fill="none" stroke="black" d="M38.76,-73.46C45.42,-64.67 53.89,-53.48 61.43,-43.53"/>
<polygon fill="black" stroke="black" points="64.11,-45.78 67.36,-35.7 58.53,-41.56 64.11,-45.78"/>
</g>
<!-- C -->
<g id="node3" class="node">
<title>C</title>
<ellipse fill="none" stroke="black" cx="99" cy="-90" rx="27" ry="18"/>
<text text-anchor="middle" x="99" y="-84.95" font-family="Times,serif" font-size="14.00">C</text>
</g>
<!-- C&#45;&gt;B -->
<g id="edge2" class="edge">
<title>C&#45;&gt;B</title>
<path fill="none" stroke="black" d="M94.4,-72.05C92.35,-64.49 89.87,-55.37 87.56,-46.85"/>
<polygon fill="black" stroke="black" points="90.95,-45.98 84.95,-37.25 84.2,-47.82 90.95,-45.98"/>
</g>
<!-- study hours -->
<g id="node4" class="node">
<title>study hours</title>
<ellipse fill="none" stroke="black" cx="200" cy="-90" rx="53.91" ry="18"/>
<text text-anchor="middle" x="200" y="-84.95" font-family="Times,serif" font-size="14.00">study hours</text>
</g>
<!-- performance -->
<g id="node5" class="node">
<title>performance</title>
<ellipse fill="gray" stroke="gray" cx="218" cy="-18" rx="58" ry="18"/>
<text text-anchor="middle" x="218" y="-12.95" font-family="Times,serif" font-size="14.00">performance</text>
</g>
<!-- study hours&#45;&gt;performance -->
<g id="edge3" class="edge">
<title>study hours&#45;&gt;performance</title>
<path fill="none" stroke="black" d="M204.45,-71.7C206.35,-64.32 208.61,-55.52 210.74,-47.25"/>
<polygon fill="black" stroke="black" points="214.12,-48.13 213.22,-37.57 207.34,-46.38 214.12,-48.13"/>
</g>
<!-- intuitive intelligence -->
<g id="node6" class="node">
<title>intuitive intelligence</title>
<ellipse fill="none" stroke="black" cx="359" cy="-90" rx="87.18" ry="18"/>
<text text-anchor="middle" x="359" y="-84.95" font-family="Times,serif" font-size="14.00">intuitive intelligence</text>
</g>
<!-- intuitive intelligence&#45;&gt;performance -->
<g id="edge4" class="edge">
<title>intuitive intelligence&#45;&gt;performance</title>
<path fill="none" stroke="black" d="M326.65,-72.94C306.25,-62.81 279.75,-49.65 258.02,-38.87"/>
<polygon fill="black" stroke="black" points="259.66,-35.78 249.15,-34.46 256.55,-42.05 259.66,-35.78"/>
</g>
</g>
</svg>