<?xml version="1.0" encoding="UTF-8" standalone="no"?>
<!DOCTYPE svg PUBLIC "-//W3C//DTD SVG 1.1//EN"
 "http://www.w3.org/Graphics/SVG/1.1/DTD/svg11.dtd">
<!-- Generated by graphviz version 9.0.0 (20230911.1827)
 -->
<!-- Pages: 1 -->
<svg width="376pt" height="404pt"
 viewBox="0.00 0.00 375.80 404.00" xmlns="http://www.w3.org/2000/svg" xmlns:xlink="http://www.w3.org/1999/xlink">
<g id="graph0" class="graph" transform="scale(1 1) rotate(0) translate(4 400)">
<polygon fill="white" stroke="none" points="-4,4 -4,-400 371.8,-400 371.8,4 -4,4"/>
<!-- Anxiety -->
<g id="node1" class="node">
<title>Anxiety</title>
<ellipse fill="none" stroke="black" cx="79.73" cy="-378" rx="40.6" ry="18"/>
<text text-anchor="middle" x="79.73" y="-372.95" font-family="Times,serif" font-size="14.00">Anxiety</text>
</g>
<!-- Smoking -->
<g id="node2" class="node">
<title>Smoking</title>
<ellipse fill="none" stroke="black" cx="139.73" cy="-306" rx="44.7" ry="18"/>
<text text-anchor="middle" x="139.73" y="-300.95" font-family="Times,serif" font-size="14.00">Smoking</text>
</g>
<!-- Anxiety&#45;&gt;Smoking -->
<g id="edge1" class="edge">
<title>Anxiety&#45;&gt;Smoking</title>
<path fill="none" stroke="black" d="M93.65,-360.76C101.07,-352.11 110.35,-341.27 118.64,-331.6"/>
<polygon fill="black" stroke="black" points="121.05,-334.17 124.9,-324.3 115.74,-329.61 121.05,-334.17"/>
</g>
<!-- Yellow Fingers -->
<g id="node4" class="node">
<title>Yellow Fingers</title>
<ellipse fill="none" stroke="black" cx="67.73" cy="-234" rx="67.73" ry="18"/>
<text text-anchor="middle" x="67.73" y="-228.95" font-family="Times,serif" font-size="14.00">Yellow Fingers</text>
</g>
<!-- Smoking&#45;&gt;Yellow Fingers -->
<g id="edge3" class="edge">
<title>Smoking&#45;&gt;Yellow Fingers</title>
<path fill="none" stroke="black" d="M123.39,-289.12C114.45,-280.42 103.16,-269.45 93.1,-259.66"/>
<polygon fill="black" stroke="black" points="95.7,-257.31 86.09,-252.85 90.82,-262.33 95.7,-257.31"/>
</g>
<!-- Lung Cancer -->
<g id="node5" class="node">
<title>Lung Cancer</title>
<ellipse fill="none" stroke="blue" cx="212.73" cy="-234" rx="59.03" ry="18"/>
<text text-anchor="middle" x="212.73" y="-228.95" font-family="Times,serif" font-size="14.00">Lung Cancer</text>
</g>
<!-- Smoking&#45;&gt;Lung Cancer -->
<g id="edge4" class="edge">
<title>Smoking&#45;&gt;Lung Cancer</title>
<path fill="none" stroke="black" d="M156.29,-289.12C165.43,-280.36 176.97,-269.29 187.23,-259.45"/>
<polygon fill="black" stroke="black" points="189.58,-262.05 194.38,-252.6 184.74,-256.99 189.58,-262.05"/>
</g>
<!-- Peer Pressure -->
<g id="node3" class="node">
<title>Peer Pressure</title>
<ellipse fill="none" stroke="black" cx="199.73" cy="-378" rx="61.08" ry="18"/>
<text text-anchor="middle" x="199.73" y="-372.95" font-family="Times,serif" font-size="14.00">Peer Pressure</text>
</g>
<!-- Peer Pressure&#45;&gt;Smoking -->
<g id="edge2" class="edge">
<title>Peer Pressure&#45;&gt;Smoking</title>
<path fill="none" stroke="black" d="M185.2,-360.05C177.95,-351.59 169.03,-341.19 161.02,-331.84"/>
<polygon fill="black" stroke="black" points="163.86,-329.77 154.69,-324.46 158.54,-334.33 163.86,-329.77"/>
</g>
<!-- Genetics -->
<g id="node6" class="node">
<title>Genetics</title>
<ellipse fill="gray" stroke="gray" cx="132.73" cy="-162" rx="43.16" ry="18"/>
<text text-anchor="middle" x="132.73" y="-156.95" font-family="Times,serif" font-size="14.00">Genetics</text>
</g>
<!-- Lung Cancer&#45;&gt;Genetics -->
<g id="edge13" class="edge">
<title>Lung Cancer&#45;&gt;Genetics</title>
<path fill="none" stroke="red" d="M179.91,-209.88C169.27,-201.05 157.95,-191.07 149,-182.6"/>
<polygon fill="red" stroke="red" points="177.67,-212.57 187.64,-216.16 182.09,-207.14 177.67,-212.57"/>
<polygon fill="red" stroke="red" points="143.08,-183.86 149.99,-176.63 151.43,-178.01 144.52,-185.24 143.08,-183.86"/>
<polyline fill="none" stroke="red" points="145.81,-179.55 149.42,-183.01"/>
</g>
<!-- Coughing -->
<g id="node9" class="node">
<title>Coughing</title>
<ellipse fill="gray" stroke="gray" cx="296.73" cy="-162" rx="47.26" ry="18"/>
<text text-anchor="middle" x="296.73" y="-156.95" font-family="Times,serif" font-size="14.00">Coughing</text>
</g>
<!-- Lung Cancer&#45;&gt;Coughing -->
<g id="edge9" class="edge">
<title>Lung Cancer&#45;&gt;Coughing</title>
<path fill="none" stroke="black" d="M227.19,-216.05C237.44,-206.68 251.41,-194.92 264.19,-184.86"/>
<polygon fill="black" stroke="black" points="266.25,-187.69 272.02,-178.81 261.97,-182.15 266.25,-187.69"/>
</g>
<!-- Lung Cancer&#45;&gt;Coughing -->
<g id="edge16" class="edge">
<title>Lung Cancer&#45;&gt;Coughing</title>
<path fill="none" stroke="green" d="M246.13,-210.46C257.4,-201.56 269.49,-191.42 279.11,-182.81"/>
<polygon fill="green" stroke="green" points="244.05,-207.65 238.29,-216.54 248.34,-213.18 244.05,-207.65"/>
<polygon fill="green" stroke="green" points="278.7,-176.43 285.41,-183.84 283.93,-185.19 277.21,-177.78 278.7,-176.43"/>
<polyline fill="none" stroke="green" points="282.8,-179.47 279.09,-182.83"/>
</g>
<!-- Fatigue -->
<g id="node10" class="node">
<title>Fatigue</title>
<ellipse fill="none" stroke="black" cx="269.73" cy="-90" rx="38.56" ry="18"/>
<text text-anchor="middle" x="269.73" y="-84.95" font-family="Times,serif" font-size="14.00">Fatigue</text>
</g>
<!-- Lung Cancer&#45;&gt;Fatigue -->
<g id="edge10" class="edge">
<title>Lung Cancer&#45;&gt;Fatigue</title>
<path fill="none" stroke="black" d="M210.4,-215.58C212.96,-197.37 221.44,-168.14 231.73,-144 235.75,-134.57 240.93,-124.61 246.29,-115.91"/>
<polygon fill="black" stroke="black" points="249.17,-117.9 251.78,-107.63 243.34,-114.03 249.17,-117.9"/>
</g>
<!-- Lung Cancer&#45;&gt;Fatigue -->
<g id="edge19" class="edge">
<title>Lung Cancer&#45;&gt;Fatigue</title>
<path fill="none" stroke="orange" d="M227.7,-205.12C233.98,-187.32 241.24,-163.93 249.73,-144 253.35,-135.51 257.9,-126.59 261.96,-118.55"/>
<polygon fill="orange" stroke="orange" points="224.42,-203.9 224.23,-214.49 230.98,-206.33 224.42,-203.9"/>
<polygon fill="orange" stroke="orange" points="265.09,-120.11 266.38,-109.59 258.82,-117.01 265.09,-120.11"/>
</g>
<!-- Genetics&#45;&gt;Lung Cancer -->
<g id="edge5" class="edge">
<title>Genetics&#45;&gt;Lung Cancer</title>
<path fill="none" stroke="black" d="M155.09,-177.66C166.32,-186.5 179.74,-197.99 190.88,-208.21"/>
<polygon fill="black" stroke="black" points="188.45,-210.73 198.14,-215.02 193.24,-205.62 188.45,-210.73"/>
</g>
<!-- Attention Disorder -->
<g id="node7" class="node">
<title>Attention Disorder</title>
<ellipse fill="none" stroke="black" cx="132.73" cy="-90" rx="80.52" ry="18"/>
<text text-anchor="middle" x="132.73" y="-84.95" font-family="Times,serif" font-size="14.00">Attention Disorder</text>
</g>
<!-- Genetics&#45;&gt;Attention Disorder -->
<g id="edge6" class="edge">
<title>Genetics&#45;&gt;Attention Disorder</title>
<path fill="none" stroke="black" d="M126.81,-143.7C126.06,-136.41 125.82,-127.73 126.08,-119.54"/>
<polygon fill="black" stroke="black" points="129.57,-119.82 126.73,-109.61 122.59,-119.36 129.57,-119.82"/>
</g>
<!-- Genetics&#45;&gt;Attention Disorder -->
<g id="edge14" class="edge">
<title>Genetics&#45;&gt;Attention Disorder</title>
<path fill="none" stroke="red" d="M139.05,-138.95C139.48,-132.73 139.59,-125.86 139.37,-119.32"/>
<polygon fill="red" stroke="red" points="143.71,-143.13 133.75,-142.27 133.92,-140.28 143.88,-141.13 143.71,-143.13"/>
<polyline fill="none" stroke="red" points="138.64,-143.7 139.07,-138.71"/>
<polygon fill="red" stroke="red" points="142.88,-119.36 138.72,-109.61 135.89,-119.82 142.88,-119.36"/>
</g>
<!-- Car Accident -->
<g id="node11" class="node">
<title>Car Accident</title>
<ellipse fill="none" stroke="blue" cx="269.73" cy="-18" rx="59.54" ry="18"/>
<text text-anchor="middle" x="269.73" y="-12.95" font-family="Times,serif" font-size="14.00">Car Accident</text>
</g>
<!-- Attention Disorder&#45;&gt;Car Accident -->
<g id="edge11" class="edge">
<title>Attention Disorder&#45;&gt;Car Accident</title>
<path fill="none" stroke="black" d="M159.03,-72.59C178.1,-62.26 204.17,-48.9 226.27,-38.09"/>
<polygon fill="black" stroke="black" points="227.59,-41.34 235.07,-33.84 224.54,-35.04 227.59,-41.34"/>
</g>
<!-- Attention Disorder&#45;&gt;Car Accident -->
<g id="edge15" class="edge">
<title>Attention Disorder&#45;&gt;Car Accident</title>
<path fill="none" stroke="red" d="M179,-68.53C197.19,-59.6 217.69,-49.13 234.64,-40.13"/>
<polygon fill="red" stroke="red" points="177.68,-65.28 170.22,-72.8 180.74,-71.57 177.68,-65.28"/>
<polygon fill="red" stroke="red" points="236.19,-43.26 243.35,-35.45 232.88,-37.1 236.19,-43.26"/>
</g>
<!-- Allergy -->
<g id="node8" class="node">
<title>Allergy</title>
<ellipse fill="none" stroke="black" cx="328.73" cy="-234" rx="39.07" ry="18"/>
<text text-anchor="middle" x="328.73" y="-228.95" font-family="Times,serif" font-size="14.00">Allergy</text>
</g>
<!-- Allergy&#45;&gt;Coughing -->
<g id="edge7" class="edge">
<title>Allergy&#45;&gt;Coughing</title>
<path fill="none" stroke="black" d="M320.98,-216.05C317.41,-208.23 313.07,-198.75 309.06,-189.98"/>
<polygon fill="black" stroke="black" points="312.37,-188.81 305.03,-181.17 306.01,-191.72 312.37,-188.81"/>
</g>
<!-- Coughing&#45;&gt;Fatigue -->
<g id="edge8" class="edge">
<title>Coughing&#45;&gt;Fatigue</title>
<path fill="none" stroke="black" d="M284.49,-144.41C280.76,-136.88 276.98,-127.75 273.97,-119.19"/>
<polygon fill="black" stroke="black" points="277.37,-118.35 270.99,-109.89 270.71,-120.48 277.37,-118.35"/>
</g>
<!-- Coughing&#45;&gt;Fatigue -->
<g id="edge17" class="edge">
<title>Coughing&#45;&gt;Fatigue</title>
<path fill="none" stroke="green" d="M294.59,-139.09C292.42,-132.22 289.56,-124.57 286.49,-117.43"/>
<polygon fill="green" stroke="green" points="300.47,-141.3 290.89,-144.17 290.32,-142.26 299.9,-139.39 300.47,-141.3"/>
<polyline fill="none" stroke="green" points="295.97,-143.7 294.53,-138.91"/>
<polygon fill="green" stroke="green" points="289.75,-116.13 282.38,-108.52 283.39,-119.07 289.75,-116.13"/>
</g>
<!-- Fatigue&#45;&gt;Car Accident -->
<g id="edge12" class="edge">
<title>Fatigue&#45;&gt;Car Accident</title>
<path fill="none" stroke="black" d="M258.05,-72.41C256.4,-64.85 255.87,-55.69 256.47,-47.1"/>
<polygon fill="black" stroke="black" points="259.9,-47.83 257.77,-37.46 252.96,-46.9 259.9,-47.83"/>
</g>
<!-- Fatigue&#45;&gt;Car Accident -->
<g id="edge18" class="edge">
<title>Fatigue&#45;&gt;Car Accident</title>
<path fill="none" stroke="green" d="M269.73,-60.24C269.73,-56.01 269.73,-51.66 269.73,-47.44"/>
<polygon fill="green" stroke="green" points="266.23,-60.18 269.73,-70.18 273.23,-60.18 266.23,-60.18"/>
<polygon fill="green" stroke="green" points="273.23,-47.62 269.73,-37.62 266.23,-47.62 273.23,-47.62"/>
</g>
<!-- Fatigue&#45;&gt;Car Accident -->
<g id="edge20" class="edge">
<title>Fatigue&#45;&gt;Car Accident</title>
<path fill="none" stroke="orange" d="M282.98,-61.02C283.3,-56.51 283.31,-51.85 283.01,-47.33"/>
<polygon fill="orange" stroke="orange" points="279.52,-60.53 281.62,-70.91 286.45,-61.49 279.52,-60.53"/>
<polygon fill="orange" stroke="orange" points="286.48,-46.9 281.69,-37.46 279.54,-47.83 286.48,-46.9"/>
</g>
</g>
</svg>