<?xml version="1.0" encoding="UTF-8" standalone="no"?>
<!DOCTYPE svg PUBLIC "-//W3C//DTD SVG 1.1//EN"
 "http://www.w3.org/Graphics/SVG/1.1/DTD/svg11.dtd">
<!-- Generated by graphviz version 9.0.0 (20230911.1827)
 -->
<!-- Pages: 1 -->
<svg width="305pt" height="260pt"
 viewBox="0.00 0.00 305.18 260.00" xmlns="http://www.w3.org/2000/svg" xmlns:xlink="http://www.w3.org/1999/xlink">
<g id="graph0" class="graph" transform="scale(1 1) rotate(0) translate(4 256)">
<polygon fill="white" stroke="none" points="-4,4 -4,-256 301.18,-256 301.18,4 -4,4"/>
<!-- T -->
<g id="node1" class="node">
<title>T</title>
<ellipse fill="none" stroke="black" cx="68" cy="-234" rx="27" ry="18"/>
<text text-anchor="middle" x="68" y="-228.95" font-family="Times,serif" font-size="14.00">T</text>
</g>
<!-- Y -->
<g id="node2" class="node">
<title>Y</title>
<ellipse fill="none" stroke="black" cx="27" cy="-162" rx="27" ry="18"/>
<text text-anchor="middle" x="27" y="-156.95" font-family="Times,serif" font-size="14.00">Y</text>
</g>
<!-- T&#45;&gt;Y -->
<g id="edge1" class="edge">
<title>T&#45;&gt;Y</title>
<path fill="none" stroke="black" d="M58.49,-216.76C53.63,-208.46 47.59,-198.15 42.11,-188.79"/>
<polygon fill="black" stroke="black" points="45.3,-187.31 37.22,-180.45 39.26,-190.85 45.3,-187.31"/>
</g>
<!-- X1 -->
<g id="node3" class="node">
<title>X1</title>
<ellipse fill="none" stroke="black" cx="62" cy="-90" rx="27" ry="18"/>
<text text-anchor="middle" x="62" y="-84.95" font-family="Times,serif" font-size="14.00">X1</text>
</g>
<!-- T&#45;&gt;X1 -->
<g id="edge2" class="edge">
<title>T&#45;&gt;X1</title>
<path fill="none" stroke="black" d="M67.26,-215.59C66.25,-191.61 64.41,-148.14 63.2,-119.42"/>
<polygon fill="black" stroke="black" points="66.71,-119.47 62.79,-109.62 59.71,-119.76 66.71,-119.47"/>
</g>
<!-- Y&#45;&gt;X1 -->
<g id="edge3" class="edge">
<title>Y&#45;&gt;X1</title>
<path fill="none" stroke="black" d="M35.29,-144.41C39.3,-136.39 44.22,-126.57 48.73,-117.54"/>
<polygon fill="black" stroke="black" points="51.75,-119.33 53.09,-108.82 45.49,-116.2 51.75,-119.33"/>
</g>
<!-- X2 -->
<g id="node4" class="node">
<title>X2</title>
<ellipse fill="gray" stroke="gray" cx="62" cy="-18" rx="27" ry="18"/>
<text text-anchor="middle" x="62" y="-12.95" font-family="Times,serif" font-size="14.00">X2</text>
</g>
<!-- X1&#45;&gt;X2 -->
<g id="edge4" class="edge">
<title>X1&#45;&gt;X2</title>
<path fill="none" stroke="black" d="M62,-71.7C62,-64.41 62,-55.73 62,-47.54"/>
<polygon fill="black" stroke="black" points="65.5,-47.62 62,-37.62 58.5,-47.62 65.5,-47.62"/>
</g>
<!-- intuitive intelligence -->
<g id="node5" class="node">
<title>intuitive intelligence</title>
<ellipse fill="none" stroke="black" cx="204" cy="-234" rx="87.18" ry="18"/>
<text text-anchor="middle" x="204" y="-228.95" font-family="Times,serif" font-size="14.00">intuitive intelligence</text>
</g>
<!-- performance -->
<g id="node6" class="node">
<title>performance</title>
<ellipse fill="none" stroke="black" cx="191" cy="-162" rx="58" ry="18"/>
<text text-anchor="middle" x="191" y="-156.95" font-family="Times,serif" font-size="14.00">performance</text>
</g>
<!-- intuitive intelligence&#45;&gt;performance -->
<g id="edge5" class="edge">
<title>intuitive intelligence&#45;&gt;performance</title>
<path fill="none" stroke="black" d="M200.79,-215.7C199.42,-208.32 197.78,-199.52 196.25,-191.25"/>
<polygon fill="black" stroke="black" points="199.72,-190.79 194.45,-181.59 192.84,-192.06 199.72,-190.79"/>
</g>
<!-- problem solving -->
<g id="node7" class="node">
<title>problem solving</title>
<ellipse fill="none" stroke="black" cx="210" cy="-90" rx="71.82" ry="18"/>
<text text-anchor="middle" x="210" y="-84.95" font-family="Times,serif" font-size="14.00">problem solving</text>
</g>
<!-- intuitive intelligence&#45;&gt;problem solving -->
<g id="edge6" class="edge">
<title>intuitive intelligence&#45;&gt;problem solving</title>
<path fill="none" stroke="black" d="M228.36,-216.33C239.65,-207.09 251.9,-194.54 258,-180 264.19,-165.25 263.76,-158.93 258,-144 253.92,-133.43 246.65,-123.65 238.98,-115.46"/>
<polygon fill="black" stroke="black" points="241.6,-113.13 232.03,-108.58 236.68,-118.1 241.6,-113.13"/>
</g>
<!-- performance&#45;&gt;problem solving -->
<g id="edge7" class="edge">
<title>performance&#45;&gt;problem solving</title>
<path fill="none" stroke="black" d="M195.7,-143.7C197.72,-136.24 200.14,-127.32 202.41,-118.97"/>
<polygon fill="black" stroke="black" points="205.72,-120.13 204.96,-109.57 198.96,-118.3 205.72,-120.13"/>
</g>
<!-- problem solving test -->
<g id="node8" class="node">
<title>problem solving test</title>
<ellipse fill="gray" stroke="gray" cx="210" cy="-18" rx="87.18" ry="18"/>
<text text-anchor="middle" x="210" y="-12.95" font-family="Times,serif" font-size="14.00">problem solving test</text>
</g>
<!-- problem solving&#45;&gt;problem solving test -->
<g id="edge8" class="edge">
<title>problem solving&#45;&gt;problem solving test</title>
<path fill="none" stroke="black" d="M210,-71.7C210,-64.41 210,-55.73 210,-47.54"/>
<polygon fill="black" stroke="black" points="213.5,-47.62 210,-37.62 206.5,-47.62 213.5,-47.62"/>
</g>
</g>
</svg>