<?xml version="1.0" encoding="UTF-8" standalone="no"?>
<!DOCTYPE svg PUBLIC "-//W3C//DTD SVG 1.1//EN"
 "http://www.w3.org/Graphics/SVG/1.1/DTD/svg11.dtd">
<!-- Generated by graphviz version 9.0.0 (20230911.1827)
 -->
<!-- Pages: 1 -->
<svg width="597pt" height="260pt"
 viewBox="0.00 0.00 596.53 260.00" xmlns="http://www.w3.org/2000/svg" xmlns:xlink="http://www.w3.org/1999/xlink">
<g id="graph0" class="graph" transform="scale(1 1) rotate(0) translate(4 256)">
<polygon fill="white" stroke="none" points="-4,4 -4,-256 592.53,-256 592.53,4 -4,4"/>
<!-- X1 -->
<g id="node1" class="node">
<title>X1</title>
<ellipse fill="gray" stroke="gray" cx="135" cy="-234" rx="27" ry="18"/>
<text text-anchor="middle" x="135" y="-228.95" font-family="Times,serif" font-size="14.00">X1</text>
</g>
<!-- U -->
<g id="node2" class="node">
<title>U</title>
<ellipse fill="none" stroke="black" cx="135" cy="-162" rx="27" ry="18"/>
<text text-anchor="middle" x="135" y="-156.95" font-family="Times,serif" font-size="14.00">U</text>
</g>
<!-- X1&#45;&gt;U -->
<g id="edge1" class="edge">
<title>X1&#45;&gt;U</title>
<path fill="none" stroke="black" d="M135,-215.7C135,-208.41 135,-199.73 135,-191.54"/>
<polygon fill="black" stroke="black" points="138.5,-191.62 135,-181.62 131.5,-191.62 138.5,-191.62"/>
</g>
<!-- X2 -->
<g id="node3" class="node">
<title>X2</title>
<ellipse fill="gray" stroke="gray" cx="27" cy="-90" rx="27" ry="18"/>
<text text-anchor="middle" x="27" y="-84.95" font-family="Times,serif" font-size="14.00">X2</text>
</g>
<!-- U&#45;&gt;X2 -->
<g id="edge2" class="edge">
<title>U&#45;&gt;X2</title>
<path fill="none" stroke="black" d="M116.19,-148.81C99.41,-137.93 74.61,-121.86 55.41,-109.42"/>
<polygon fill="black" stroke="black" points="57.52,-106.61 47.23,-104.11 53.72,-112.49 57.52,-106.61"/>
</g>
<!-- X3 -->
<g id="node4" class="node">
<title>X3</title>
<ellipse fill="gray" stroke="gray" cx="99" cy="-90" rx="27" ry="18"/>
<text text-anchor="middle" x="99" y="-84.95" font-family="Times,serif" font-size="14.00">X3</text>
</g>
<!-- U&#45;&gt;X3 -->
<g id="edge3" class="edge">
<title>U&#45;&gt;X3</title>
<path fill="none" stroke="black" d="M126.65,-144.76C122.42,-136.55 117.19,-126.37 112.42,-117.09"/>
<polygon fill="black" stroke="black" points="115.68,-115.79 108,-108.49 109.46,-118.99 115.68,-115.79"/>
</g>
<!-- T -->
<g id="node5" class="node">
<title>T</title>
<ellipse fill="none" stroke="black" cx="171" cy="-90" rx="27" ry="18"/>
<text text-anchor="middle" x="171" y="-84.95" font-family="Times,serif" font-size="14.00">T</text>
</g>
<!-- U&#45;&gt;T -->
<g id="edge4" class="edge">
<title>U&#45;&gt;T</title>
<path fill="none" stroke="black" d="M143.35,-144.76C147.58,-136.55 152.81,-126.37 157.58,-117.09"/>
<polygon fill="black" stroke="black" points="160.54,-118.99 162,-108.49 154.32,-115.79 160.54,-118.99"/>
</g>
<!-- Y -->
<g id="node6" class="node">
<title>Y</title>
<ellipse fill="none" stroke="black" cx="199" cy="-18" rx="27" ry="18"/>
<text text-anchor="middle" x="199" y="-12.95" font-family="Times,serif" font-size="14.00">Y</text>
</g>
<!-- U&#45;&gt;Y -->
<g id="edge5" class="edge">
<title>U&#45;&gt;Y</title>
<path fill="none" stroke="black" d="M157.44,-151.43C174.49,-142.81 196.7,-128.36 207,-108 216.58,-89.06 213.63,-64.94 208.81,-46.59"/>
<polygon fill="black" stroke="black" points="212.22,-45.78 206.01,-37.19 205.52,-47.78 212.22,-45.78"/>
</g>
<!-- T&#45;&gt;Y -->
<g id="edge6" class="edge">
<title>T&#45;&gt;Y</title>
<path fill="none" stroke="black" d="M177.64,-72.41C180.77,-64.57 184.6,-54.99 188.15,-46.13"/>
<polygon fill="black" stroke="black" points="191.39,-47.46 191.85,-36.88 184.89,-44.86 191.39,-47.46"/>
</g>
<!-- familiarity -->
<g id="node7" class="node">
<title>familiarity</title>
<ellipse fill="gray" stroke="gray" cx="474" cy="-234" rx="50.33" ry="18"/>
<text text-anchor="middle" x="474" y="-228.95" font-family="Times,serif" font-size="14.00">familiarity</text>
</g>
<!-- gene -->
<g id="node8" class="node">
<title>gene</title>
<ellipse fill="none" stroke="black" cx="474" cy="-162" rx="28.32" ry="18"/>
<text text-anchor="middle" x="474" y="-156.95" font-family="Times,serif" font-size="14.00">gene</text>
</g>
<!-- familiarity&#45;&gt;gene -->
<g id="edge7" class="edge">
<title>familiarity&#45;&gt;gene</title>
<path fill="none" stroke="black" d="M474,-215.7C474,-208.41 474,-199.73 474,-191.54"/>
<polygon fill="black" stroke="black" points="477.5,-191.62 474,-181.62 470.5,-191.62 477.5,-191.62"/>
</g>
<!-- symptom1 -->
<g id="node9" class="node">
<title>symptom1</title>
<ellipse fill="gray" stroke="gray" cx="305" cy="-90" rx="50.84" ry="18"/>
<text text-anchor="middle" x="305" y="-84.95" font-family="Times,serif" font-size="14.00">symptom1</text>
</g>
<!-- gene&#45;&gt;symptom1 -->
<g id="edge8" class="edge">
<title>gene&#45;&gt;symptom1</title>
<path fill="none" stroke="black" d="M450.86,-151.41C424.38,-140.45 380.46,-122.26 347.73,-108.7"/>
<polygon fill="black" stroke="black" points="349.07,-105.47 338.49,-104.87 346.39,-111.93 349.07,-105.47"/>
</g>
<!-- symptom2 -->
<g id="node10" class="node">
<title>symptom2</title>
<ellipse fill="gray" stroke="gray" cx="425" cy="-90" rx="50.84" ry="18"/>
<text text-anchor="middle" x="425" y="-84.95" font-family="Times,serif" font-size="14.00">symptom2</text>
</g>
<!-- gene&#45;&gt;symptom2 -->
<g id="edge9" class="edge">
<title>gene&#45;&gt;symptom2</title>
<path fill="none" stroke="black" d="M462.88,-145.12C457.1,-136.85 449.88,-126.54 443.3,-117.14"/>
<polygon fill="black" stroke="black" points="446.23,-115.22 437.63,-109.04 440.49,-119.24 446.23,-115.22"/>
</g>
<!-- habit -->
<g id="node11" class="node">
<title>habit</title>
<ellipse fill="none" stroke="black" cx="523" cy="-90" rx="29.34" ry="18"/>
<text text-anchor="middle" x="523" y="-84.95" font-family="Times,serif" font-size="14.00">habit</text>
</g>
<!-- gene&#45;&gt;habit -->
<g id="edge10" class="edge">
<title>gene&#45;&gt;habit</title>
<path fill="none" stroke="black" d="M485.12,-145.12C491.13,-136.52 498.7,-125.72 505.49,-116.02"/>
<polygon fill="black" stroke="black" points="508.19,-118.26 511.06,-108.06 502.46,-114.25 508.19,-118.26"/>
</g>
<!-- disease -->
<g id="node12" class="node">
<title>disease</title>
<ellipse fill="none" stroke="black" cx="551" cy="-18" rx="37.53" ry="18"/>
<text text-anchor="middle" x="551" y="-12.95" font-family="Times,serif" font-size="14.00">disease</text>
</g>
<!-- gene&#45;&gt;disease -->
<g id="edge12" class="edge">
<title>gene&#45;&gt;disease</title>
<path fill="none" stroke="black" d="M499.3,-153.32C520,-145.54 547.92,-131.28 561,-108 571.47,-89.36 567.81,-65.08 562.18,-46.59"/>
<polygon fill="black" stroke="black" points="565.57,-45.68 559.02,-37.35 558.95,-47.95 565.57,-45.68"/>
</g>
<!-- habit&#45;&gt;disease -->
<g id="edge11" class="edge">
<title>habit&#45;&gt;disease</title>
<path fill="none" stroke="black" d="M529.78,-72.05C532.87,-64.32 536.62,-54.96 540.09,-46.27"/>
<polygon fill="black" stroke="black" points="543.26,-47.78 543.72,-37.19 536.76,-45.18 543.26,-47.78"/>
</g>
</g>
</svg>