<?xml version="1.0" encoding="UTF-8" standalone="no"?>
<!DOCTYPE svg PUBLIC "-//W3C//DTD SVG 1.1//EN"
 "http://www.w3.org/Graphics/SVG/1.1/DTD/svg11.dtd">
<!-- Generated by graphviz version 9.0.0 (20230911.1827)
 -->
<!-- Pages: 1 -->
<svg width="295pt" height="188pt"
 viewBox="0.00 0.00 295.18 188.00" xmlns="http://www.w3.org/2000/svg" xmlns:xlink="http://www.w3.org/1999/xlink">
<g id="graph0" class="graph" transform="scale(1 1) rotate(0) translate(4 184)">
<polygon fill="white" stroke="none" points="-4,4 -4,-184 291.18,-184 291.18,4 -4,4"/>
<!-- T -->
<g id="node1" class="node">
<title>T</title>
<ellipse fill="none" stroke="black" cx="64" cy="-162" rx="27" ry="18"/>
<text text-anchor="middle" x="64" y="-156.95" font-family="Times,serif" font-size="14.00">T</text>
</g>
<!-- Y -->
<g id="node2" class="node">
<title>Y</title>
<ellipse fill="none" stroke="black" cx="27" cy="-90" rx="27" ry="18"/>
<text text-anchor="middle" x="27" y="-84.95" font-family="Times,serif" font-size="14.00">Y</text>
</g>
<!-- T&#45;&gt;Y -->
<g id="edge1" class="edge">
<title>T&#45;&gt;Y</title>
<path fill="none" stroke="black" d="M55.42,-144.76C51.08,-136.55 45.7,-126.37 40.79,-117.09"/>
<polygon fill="black" stroke="black" points="44.01,-115.69 36.24,-108.49 37.82,-118.96 44.01,-115.69"/>
</g>
<!-- X -->
<g id="node3" class="node">
<title>X</title>
<ellipse fill="gray" stroke="gray" cx="64" cy="-18" rx="27" ry="18"/>
<text text-anchor="middle" x="64" y="-12.95" font-family="Times,serif" font-size="14.00">X</text>
</g>
<!-- T&#45;&gt;X -->
<g id="edge2" class="edge">
<title>T&#45;&gt;X</title>
<path fill="none" stroke="black" d="M64,-143.59C64,-119.61 64,-76.14 64,-47.42"/>
<polygon fill="black" stroke="black" points="67.5,-47.62 64,-37.62 60.5,-47.62 67.5,-47.62"/>
</g>
<!-- Y&#45;&gt;X -->
<g id="edge3" class="edge">
<title>Y&#45;&gt;X</title>
<path fill="none" stroke="black" d="M35.58,-72.76C39.92,-64.55 45.3,-54.37 50.21,-45.09"/>
<polygon fill="black" stroke="black" points="53.18,-46.96 54.76,-36.49 46.99,-43.69 53.18,-46.96"/>
</g>
<!-- intuitive intelligence -->
<g id="node4" class="node">
<title>intuitive intelligence</title>
<ellipse fill="none" stroke="black" cx="200" cy="-162" rx="87.18" ry="18"/>
<text text-anchor="middle" x="200" y="-156.95" font-family="Times,serif" font-size="14.00">intuitive intelligence</text>
</g>
<!-- performance -->
<g id="node5" class="node">
<title>performance</title>
<ellipse fill="none" stroke="black" cx="183" cy="-90" rx="58" ry="18"/>
<text text-anchor="middle" x="183" y="-84.95" font-family="Times,serif" font-size="14.00">performance</text>
</g>
<!-- intuitive intelligence&#45;&gt;performance -->
<g id="edge4" class="edge">
<title>intuitive intelligence&#45;&gt;performance</title>
<path fill="none" stroke="black" d="M195.8,-143.7C194.01,-136.32 191.87,-127.52 189.86,-119.25"/>
<polygon fill="black" stroke="black" points="193.27,-118.47 187.51,-109.58 186.47,-120.12 193.27,-118.47"/>
</g>
<!-- problem solving -->
<g id="node6" class="node">
<title>problem solving</title>
<ellipse fill="gray" stroke="gray" cx="200" cy="-18" rx="71.82" ry="18"/>
<text text-anchor="middle" x="200" y="-12.95" font-family="Times,serif" font-size="14.00">problem solving</text>
</g>
<!-- intuitive intelligence&#45;&gt;problem solving -->
<g id="edge5" class="edge">
<title>intuitive intelligence&#45;&gt;problem solving</title>
<path fill="none" stroke="black" d="M222.33,-144.2C232.87,-134.84 244.35,-122.22 250,-108 255.91,-93.13 255.91,-86.87 250,-72 245.77,-61.36 238.28,-51.61 230.36,-43.46"/>
<polygon fill="black" stroke="black" points="232.83,-40.98 223.17,-36.62 228,-46.05 232.83,-40.98"/>
</g>
<!-- performance&#45;&gt;problem solving -->
<g id="edge6" class="edge">
<title>performance&#45;&gt;problem solving</title>
<path fill="none" stroke="black" d="M187.2,-71.7C188.99,-64.32 191.13,-55.52 193.14,-47.25"/>
<polygon fill="black" stroke="black" points="196.53,-48.12 195.49,-37.58 189.73,-46.47 196.53,-48.12"/>
</g>
</g>
</svg>