<?xml version="1.0" encoding="UTF-8" standalone="no"?>
<!DOCTYPE svg PUBLIC "-//W3C//DTD SVG 1.1//EN"
 "http://www.w3.org/Graphics/SVG/1.1/DTD/svg11.dtd">
<!-- Generated by graphviz version 9.0.0 (20230911.1827)
 -->
<!-- Pages: 1 -->
<svg width="366pt" height="116pt"
 viewBox="0.00 0.00 366.09 116.00" xmlns="http://www.w3.org/2000/svg" xmlns:xlink="http://www.w3.org/1999/xlink">
<g id="graph0" class="graph" transform="scale(1 1) rotate(0) translate(4 112)">
<polygon fill="white" stroke="none" points="-4,4 -4,-112 362.09,-112 362.09,4 -4,4"/>
<!-- B -->
<g id="node1" class="node">
<title>B</title>
<ellipse fill="gray" stroke="gray" cx="63" cy="-90" rx="27" ry="18"/>
<text text-anchor="middle" x="63" y="-84.95" font-family="Times,serif" font-size="14.00">B</text>
</g>
<!-- A -->
<g id="node2" class="node">
<title>A</title>
<ellipse fill="none" stroke="black" cx="27" cy="-18" rx="27" ry="18"/>
<text text-anchor="middle" x="27" y="-12.95" font-family="Times,serif" font-size="14.00">A</text>
</g>
<!-- B&#45;&gt;A -->
<g id="edge1" class="edge">
<title>B&#45;&gt;A</title>
<path fill="none" stroke="black" d="M54.65,-72.76C50.42,-64.55 45.19,-54.37 40.42,-45.09"/>
<polygon fill="black" stroke="black" points="43.68,-43.79 36,-36.49 37.46,-46.99 43.68,-43.79"/>
</g>
<!-- C -->
<g id="node3" class="node">
<title>C</title>
<ellipse fill="none" stroke="black" cx="99" cy="-18" rx="27" ry="18"/>
<text text-anchor="middle" x="99" y="-12.95" font-family="Times,serif" font-size="14.00">C</text>
</g>
<!-- B&#45;&gt;C -->
<g id="edge2" class="edge">
<title>B&#45;&gt;C</title>
<path fill="none" stroke="black" d="M71.35,-72.76C75.58,-64.55 80.81,-54.37 85.58,-45.09"/>
<polygon fill="black" stroke="black" points="88.54,-46.99 90,-36.49 82.32,-43.79 88.54,-46.99"/>
</g>
<!-- interest -->
<g id="node4" class="node">
<title>interest</title>
<ellipse fill="gray" stroke="gray" cx="260" cy="-90" rx="38.04" ry="18"/>
<text text-anchor="middle" x="260" y="-84.95" font-family="Times,serif" font-size="14.00">interest</text>
</g>
<!-- performance -->
<g id="node5" class="node">
<title>performance</title>
<ellipse fill="none" stroke="black" cx="202" cy="-18" rx="58" ry="18"/>
<text text-anchor="middle" x="202" y="-12.95" font-family="Times,serif" font-size="14.00">performance</text>
</g>
<!-- interest&#45;&gt;performance -->
<g id="edge3" class="edge">
<title>interest&#45;&gt;performance</title>
<path fill="none" stroke="black" d="M246.55,-72.76C239.55,-64.32 230.83,-53.8 222.97,-44.31"/>
<polygon fill="black" stroke="black" points="225.82,-42.27 216.75,-36.8 220.43,-46.73 225.82,-42.27"/>
</g>
<!-- tutoring -->
<g id="node6" class="node">
<title>tutoring</title>
<ellipse fill="none" stroke="black" cx="318" cy="-18" rx="40.09" ry="18"/>
<text text-anchor="middle" x="318" y="-12.95" font-family="Times,serif" font-size="14.00">tutoring</text>
</g>
<!-- interest&#45;&gt;tutoring -->
<g id="edge4" class="edge">
<title>interest&#45;&gt;tutoring</title>
<path fill="none" stroke="black" d="M273.45,-72.76C280.55,-64.19 289.42,-53.49 297.37,-43.9"/>
<polygon fill="black" stroke="black" points="299.97,-46.25 303.66,-36.31 294.58,-41.78 299.97,-46.25"/>
</g>
</g>
</svg>