<?xml version="1.0" encoding="UTF-8" standalone="no"?>
<!DOCTYPE svg PUBLIC "-//W3C//DTD SVG 1.1//EN"
 "http://www.w3.org/Graphics/SVG/1.1/DTD/svg11.dtd">
<!-- Generated by graphviz version 9.0.0 (20230911.1827)
 -->
<!-- Pages: 1 -->
<svg width="196pt" height="188pt"
 viewBox="0.00 0.00 196.00 188.00" xmlns="http://www.w3.org/2000/svg" xmlns:xlink="http://www.w3.org/1999/xlink">
<g id="graph0" class="graph" transform="scale(1 1) rotate(0) translate(4 184)">
<polygon fill="white" stroke="none" points="-4,4 -4,-184 192,-184 192,4 -4,4"/>
<!-- A -->
<g id="node1" class="node">
<title>A</title>
<ellipse fill="none" stroke="black" cx="27" cy="-162" rx="27" ry="18"/>
<text text-anchor="middle" x="27" y="-156.95" font-family="Times,serif" font-size="14.00">A</text>
</g>
<!-- B -->
<g id="node2" class="node">
<title>B</title>
<ellipse fill="none" stroke="black" cx="27" cy="-90" rx="27" ry="18"/>
<text text-anchor="middle" x="27" y="-84.95" font-family="Times,serif" font-size="14.00">B</text>
</g>
<!-- A&#45;&gt;B -->
<g id="edge1" class="edge">
<title>A&#45;&gt;B</title>
<path fill="none" stroke="black" d="M27,-143.7C27,-136.41 27,-127.73 27,-119.54"/>
<polygon fill="black" stroke="black" points="30.5,-119.62 27,-109.62 23.5,-119.62 30.5,-119.62"/>
</g>
<!-- C -->
<g id="node3" class="node">
<title>C</title>
<ellipse fill="none" stroke="black" cx="27" cy="-18" rx="27" ry="18"/>
<text text-anchor="middle" x="27" y="-12.95" font-family="Times,serif" font-size="14.00">C</text>
</g>
<!-- B&#45;&gt;C -->
<g id="edge2" class="edge">
<title>B&#45;&gt;C</title>
<path fill="none" stroke="black" d="M27,-71.7C27,-64.41 27,-55.73 27,-47.54"/>
<polygon fill="black" stroke="black" points="30.5,-47.62 27,-37.62 23.5,-47.62 30.5,-47.62"/>
</g>
<!-- interest -->
<g id="node4" class="node">
<title>interest</title>
<ellipse fill="none" stroke="black" cx="130" cy="-162" rx="38.04" ry="18"/>
<text text-anchor="middle" x="130" y="-156.95" font-family="Times,serif" font-size="14.00">interest</text>
</g>
<!-- study hours -->
<g id="node5" class="node">
<title>study hours</title>
<ellipse fill="none" stroke="black" cx="130" cy="-90" rx="53.91" ry="18"/>
<text text-anchor="middle" x="130" y="-84.95" font-family="Times,serif" font-size="14.00">study hours</text>
</g>
<!-- interest&#45;&gt;study hours -->
<g id="edge3" class="edge">
<title>interest&#45;&gt;study hours</title>
<path fill="none" stroke="black" d="M130,-143.7C130,-136.41 130,-127.73 130,-119.54"/>
<polygon fill="black" stroke="black" points="133.5,-119.62 130,-109.62 126.5,-119.62 133.5,-119.62"/>
</g>
<!-- performance -->
<g id="node6" class="node">
<title>performance</title>
<ellipse fill="none" stroke="black" cx="130" cy="-18" rx="58" ry="18"/>
<text text-anchor="middle" x="130" y="-12.95" font-family="Times,serif" font-size="14.00">performance</text>
</g>
<!-- study hours&#45;&gt;performance -->
<g id="edge4" class="edge">
<title>study hours&#45;&gt;performance</title>
<path fill="none" stroke="black" d="M130,-71.7C130,-64.41 130,-55.73 130,-47.54"/>
<polygon fill="black" stroke="black" points="133.5,-47.62 130,-37.62 126.5,-47.62 133.5,-47.62"/>
</g>
</g>
</svg>