<?xml version="1.0" encoding="UTF-8" standalone="no"?>
<!DOCTYPE svg PUBLIC "-//W3C//DTD SVG 1.1//EN"
 "http://www.w3.org/Graphics/SVG/1.1/DTD/svg11.dtd">
<!-- Generated by graphviz version 9.0.0 (20230911.1827)
 -->
<!-- Pages: 1 -->
<svg width="278pt" height="116pt"
 viewBox="0.00 0.00 278.00 116.00" xmlns="http://www.w3.org/2000/svg" xmlns:xlink="http://www.w3.org/1999/xlink">
<g id="graph0" class="graph" transform="scale(1 1) rotate(0) translate(4 112)">
<polygon fill="white" stroke="none" points="-4,4 -4,-112 274,-112 274,4 -4,4"/>
<!-- A -->
<g id="node1" class="node">
<title>A</title>
<ellipse fill="none" stroke="black" cx="27" cy="-18" rx="27" ry="18"/>
<text text-anchor="middle" x="27" y="-12.95" font-family="Times,serif" font-size="14.00">A</text>
</g>
<!-- B -->
<g id="node2" class="node">
<title>B</title>
<ellipse fill="none" stroke="black" cx="63" cy="-90" rx="27" ry="18"/>
<text text-anchor="middle" x="63" y="-84.95" font-family="Times,serif" font-size="14.00">B</text>
</g>
<!-- B&#45;&gt;A -->
<g id="edge2" class="edge">
<title>B&#45;&gt;A</title>
<path fill="none" stroke="black" d="M49.73,-74.15C44.64,-66.19 39.13,-56.12 34.66,-46.77"/>
<polygon fill="black" stroke="black" points="37.87,-45.38 30.6,-37.67 31.48,-48.23 37.87,-45.38"/>
</g>
<!-- B&#45;&gt;A -->
<g id="edge4" class="edge">
<title>B&#45;&gt;A</title>
<path fill="none" stroke="red" stroke-dasharray="5,2" d="M55.46,-61.49C52.64,-55.57 49.4,-49.36 46.11,-43.56"/>
<polygon fill="red" stroke="red" points="52.13,-62.61 59.4,-70.31 58.52,-59.76 52.13,-62.61"/>
<polygon fill="red" stroke="red" points="49.13,-41.8 40.98,-35.04 43.13,-45.41 49.13,-41.8"/>
</g>
<!-- C -->
<g id="node3" class="node">
<title>C</title>
<ellipse fill="none" stroke="black" cx="99" cy="-18" rx="27" ry="18"/>
<text text-anchor="middle" x="99" y="-12.95" font-family="Times,serif" font-size="14.00">C</text>
</g>
<!-- B&#45;&gt;C -->
<g id="edge1" class="edge">
<title>B&#45;&gt;C</title>
<path fill="none" stroke="red" stroke-dasharray="5,2" d="M70.54,-61.49C73.36,-55.57 76.6,-49.36 79.89,-43.56"/>
<polygon fill="red" stroke="red" points="67.48,-59.76 66.6,-70.31 73.87,-62.61 67.48,-59.76"/>
<polygon fill="red" stroke="red" points="82.87,-45.41 85.02,-35.04 76.87,-41.8 82.87,-45.41"/>
</g>
<!-- B&#45;&gt;C -->
<g id="edge3" class="edge">
<title>B&#45;&gt;C</title>
<path fill="none" stroke="black" d="M76.27,-74.15C81.36,-66.19 86.87,-56.12 91.34,-46.77"/>
<polygon fill="black" stroke="black" points="94.52,-48.23 95.4,-37.67 88.13,-45.38 94.52,-48.23"/>
</g>
<!-- A2 -->
<g id="node4" class="node">
<title>A2</title>
<ellipse fill="none" stroke="black" cx="171" cy="-18" rx="27" ry="18"/>
<text text-anchor="middle" x="171" y="-12.95" font-family="Times,serif" font-size="14.00">A</text>
</g>
<!-- B2 -->
<g id="node5" class="node">
<title>B2</title>
<ellipse fill="gray" stroke="gray" cx="207" cy="-90" rx="27" ry="18"/>
<text text-anchor="middle" x="207" y="-84.95" font-family="Times,serif" font-size="14.00">B</text>
</g>
<!-- B2&#45;&gt;A2 -->
<g id="edge5" class="edge">
<title>B2&#45;&gt;A2</title>
<path fill="none" stroke="red" stroke-dasharray="5,2" d="M191.21,-70.1C184.84,-59.57 178.2,-46.55 173.98,-36.29"/>
<polygon fill="red" stroke="red" points="197.45,-70.67 188.95,-75.94 187.9,-74.25 196.39,-68.97 197.45,-70.67"/>
<polyline fill="none" stroke="red" points="193.73,-74.15 191.09,-69.91"/>
</g>
<!-- B2&#45;&gt;A2 -->
<g id="edge6" class="edge">
<title>B2&#45;&gt;A2</title>
<path fill="none" stroke="black" d="M204.02,-71.7C200.53,-63.22 195.4,-52.88 190.13,-43.6"/>
<polygon fill="black" stroke="black" points="193.13,-41.8 184.98,-35.04 187.13,-45.41 193.13,-41.8"/>
</g>
<!-- C2 -->
<g id="node6" class="node">
<title>C2</title>
<ellipse fill="none" stroke="black" cx="243" cy="-18" rx="27" ry="18"/>
<text text-anchor="middle" x="243" y="-12.95" font-family="Times,serif" font-size="14.00">C</text>
</g>
<!-- B2&#45;&gt;C2 -->
<g id="edge7" class="edge">
<title>B2&#45;&gt;C2</title>
<path fill="none" stroke="black" d="M209.98,-71.7C213.47,-63.22 218.6,-52.88 223.87,-43.6"/>
<polygon fill="black" stroke="black" points="226.87,-45.41 229.02,-35.04 220.87,-41.8 226.87,-45.41"/>
</g>
<!-- B2&#45;&gt;C2 -->
<g id="edge8" class="edge">
<title>B2&#45;&gt;C2</title>
<path fill="none" stroke="red" stroke-dasharray="5,2" d="M222.79,-70.1C229.16,-59.57 235.8,-46.55 240.02,-36.29"/>
<polygon fill="red" stroke="red" points="225.05,-75.94 216.55,-70.67 217.61,-68.97 226.1,-74.25 225.05,-75.94"/>
<polyline fill="none" stroke="red" points="220.27,-74.15 222.91,-69.91"/>
</g>
</g>
</svg>