<?xml version="1.0" encoding="UTF-8" standalone="no"?>
<!DOCTYPE svg PUBLIC "-//W3C//DTD SVG 1.1//EN"
 "http://www.w3.org/Graphics/SVG/1.1/DTD/svg11.dtd">
<!-- Generated by graphviz version 9.0.0 (20230911.1827)
 -->
<!-- Pages: 1 -->
<svg width="254pt" height="116pt"
 viewBox="0.00 0.00 254.18 116.00" xmlns="http://www.w3.org/2000/svg" xmlns:xlink="http://www.w3.org/1999/xlink">
<g id="graph0" class="graph" transform="scale(1 1) rotate(0) translate(4 112)">
<polygon fill="white" stroke="none" points="-4,4 -4,-112 250.18,-112 250.18,4 -4,4"/>
<!-- T -->
<g id="node1" class="node">
<title>T</title>
<ellipse fill="none" stroke="black" cx="27" cy="-90" rx="27" ry="18"/>
<text text-anchor="middle" x="27" y="-84.95" font-family="Times,serif" font-size="14.00">T</text>
</g>
<!-- Y -->
<g id="node2" class="node">
<title>Y</title>
<ellipse fill="none" stroke="black" cx="27" cy="-18" rx="27" ry="18"/>
<text text-anchor="middle" x="27" y="-12.95" font-family="Times,serif" font-size="14.00">Y</text>
</g>
<!-- T&#45;&gt;Y -->
<g id="edge1" class="edge">
<title>T&#45;&gt;Y</title>
<path fill="none" stroke="black" d="M27,-71.7C27,-64.41 27,-55.73 27,-47.54"/>
<polygon fill="black" stroke="black" points="30.5,-47.62 27,-37.62 23.5,-47.62 30.5,-47.62"/>
</g>
<!-- intuitive intelligence -->
<g id="node3" class="node">
<title>intuitive intelligence</title>
<ellipse fill="none" stroke="black" cx="159" cy="-90" rx="87.18" ry="18"/>
<text text-anchor="middle" x="159" y="-84.95" font-family="Times,serif" font-size="14.00">intuitive intelligence</text>
</g>
<!-- performance -->
<g id="node4" class="node">
<title>performance</title>
<ellipse fill="none" stroke="black" cx="159" cy="-18" rx="58" ry="18"/>
<text text-anchor="middle" x="159" y="-12.95" font-family="Times,serif" font-size="14.00">performance</text>
</g>
<!-- intuitive intelligence&#45;&gt;performance -->
<g id="edge2" class="edge">
<title>intuitive intelligence&#45;&gt;performance</title>
<path fill="none" stroke="black" d="M159,-71.7C159,-64.41 159,-55.73 159,-47.54"/>
<polygon fill="black" stroke="black" points="162.5,-47.62 159,-37.62 155.5,-47.62 162.5,-47.62"/>
</g>
</g>
</svg>