<?xml version="1.0" encoding="UTF-8" standalone="no"?>
<!DOCTYPE svg PUBLIC "-//W3C//DTD SVG 1.1//EN"
 "http://www.w3.org/Graphics/SVG/1.1/DTD/svg11.dtd">
<!-- Generated by graphviz version 9.0.0 (20230911.1827)
 -->
<!-- Pages: 1 -->
<svg width="308pt" height="188pt"
 viewBox="0.00 0.00 308.09 188.00" xmlns="http://www.w3.org/2000/svg" xmlns:xlink="http://www.w3.org/1999/xlink">
<g id="graph0" class="graph" transform="scale(1 1) rotate(0) translate(4 184)">
<polygon fill="white" stroke="none" points="-4,4 -4,-184 304.09,-184 304.09,4 -4,4"/>
<!-- C -->
<g id="node1" class="node">
<title>C</title>
<ellipse fill="none" stroke="black" cx="53.91" cy="-162" rx="53.91" ry="18"/>
<text text-anchor="middle" x="53.91" y="-156.95" font-family="Times,serif" font-size="14.00">study hours</text>
</g>
<!-- A -->
<g id="node3" class="node">
<title>A</title>
<ellipse fill="none" stroke="black" cx="132.91" cy="-90" rx="55.45" ry="18"/>
<text text-anchor="middle" x="132.91" y="-84.95" font-family="Times,serif" font-size="14.00">competence</text>
</g>
<!-- C&#45;&gt;A -->
<g id="edge1" class="edge">
<title>C&#45;&gt;A</title>
<path fill="none" stroke="black" d="M72.23,-144.76C82.23,-135.91 94.8,-124.77 105.9,-114.93"/>
<polygon fill="black" stroke="black" points="108.12,-117.65 113.28,-108.39 103.47,-112.41 108.12,-117.65"/>
</g>
<!-- D -->
<g id="node2" class="node">
<title>D</title>
<ellipse fill="none" stroke="black" cx="212.91" cy="-162" rx="87.18" ry="18"/>
<text text-anchor="middle" x="212.91" y="-156.95" font-family="Times,serif" font-size="14.00">intuitive intelligence</text>
</g>
<!-- D&#45;&gt;A -->
<g id="edge2" class="edge">
<title>D&#45;&gt;A</title>
<path fill="none" stroke="black" d="M193.54,-144.05C183.47,-135.24 171,-124.33 159.99,-114.69"/>
<polygon fill="black" stroke="black" points="162.52,-112.25 152.69,-108.3 157.91,-117.52 162.52,-112.25"/>
</g>
<!-- G -->
<g id="node4" class="node">
<title>G</title>
<ellipse fill="gray" stroke="gray" cx="132.91" cy="-18" rx="58" ry="18"/>
<text text-anchor="middle" x="132.91" y="-12.95" font-family="Times,serif" font-size="14.00">performance</text>
</g>
<!-- A&#45;&gt;G -->
<g id="edge3" class="edge">
<title>A&#45;&gt;G</title>
<path fill="none" stroke="black" d="M132.91,-71.7C132.91,-64.41 132.91,-55.73 132.91,-47.54"/>
<polygon fill="black" stroke="black" points="136.41,-47.62 132.91,-37.62 129.41,-47.62 136.41,-47.62"/>
</g>
</g>
</svg>