<?xml version="1.0" encoding="UTF-8" standalone="no"?>
<!DOCTYPE svg PUBLIC "-//W3C//DTD SVG 1.1//EN"
 "http://www.w3.org/Graphics/SVG/1.1/DTD/svg11.dtd">
<!-- Generated by graphviz version 9.0.0 (20230911.1827)
 -->
<!-- Pages: 1 -->
<svg width="134pt" height="188pt"
 viewBox="0.00 0.00 134.00 188.00" xmlns="http://www.w3.org/2000/svg" xmlns:xlink="http://www.w3.org/1999/xlink">
<g id="graph0" class="graph" transform="scale(1 1) rotate(0) translate(4 184)">
<polygon fill="white" stroke="none" points="-4,4 -4,-184 130,-184 130,4 -4,4"/>
<!-- A -->
<g id="node1" class="node">
<title>A</title>
<ellipse fill="none" stroke="black" cx="27" cy="-162" rx="27" ry="18"/>
<text text-anchor="middle" x="27" y="-156.95" font-family="Times,serif" font-size="14.00">A</text>
</g>
<!-- B -->
<g id="node2" class="node">
<title>B</title>
<ellipse fill="none" stroke="black" cx="27" cy="-90" rx="27" ry="18"/>
<text text-anchor="middle" x="27" y="-84.95" font-family="Times,serif" font-size="14.00">B</text>
</g>
<!-- A&#45;&gt;B -->
<g id="edge1" class="edge">
<title>A&#45;&gt;B</title>
<path fill="none" stroke="black" d="M21.12,-144.05C20.33,-136.57 20.08,-127.58 20.37,-119.14"/>
<polygon fill="black" stroke="black" points="23.85,-119.51 21.04,-109.3 16.87,-119.04 23.85,-119.51"/>
</g>
<!-- A&#45;&gt;B -->
<g id="edge3" class="edge">
<title>A&#45;&gt;B</title>
<path fill="none" stroke="red" stroke-dasharray="5,2" d="M33.64,-132.69C33.79,-128.2 33.79,-123.56 33.63,-119.07"/>
<polygon fill="red" stroke="red" points="30.16,-132.33 32.98,-142.54 37.14,-132.8 30.16,-132.33"/>
<polygon fill="red" stroke="red" points="37.14,-119.04 32.96,-109.3 30.15,-119.51 37.14,-119.04"/>
</g>
<!-- C -->
<g id="node3" class="node">
<title>C</title>
<ellipse fill="none" stroke="black" cx="27" cy="-18" rx="27" ry="18"/>
<text text-anchor="middle" x="27" y="-12.95" font-family="Times,serif" font-size="14.00">C</text>
</g>
<!-- B&#45;&gt;C -->
<g id="edge2" class="edge">
<title>B&#45;&gt;C</title>
<path fill="none" stroke="black" d="M21.12,-72.05C20.33,-64.57 20.08,-55.58 20.37,-47.14"/>
<polygon fill="black" stroke="black" points="23.85,-47.51 21.04,-37.3 16.87,-47.04 23.85,-47.51"/>
</g>
<!-- B&#45;&gt;C -->
<g id="edge4" class="edge">
<title>B&#45;&gt;C</title>
<path fill="none" stroke="red" stroke-dasharray="5,2" d="M33.64,-60.69C33.79,-56.2 33.79,-51.56 33.63,-47.07"/>
<polygon fill="red" stroke="red" points="30.16,-60.33 32.98,-70.54 37.14,-60.8 30.16,-60.33"/>
<polygon fill="red" stroke="red" points="37.14,-47.04 32.96,-37.3 30.15,-47.51 37.14,-47.04"/>
</g>
<!-- A2 -->
<g id="node4" class="node">
<title>A2</title>
<ellipse fill="none" stroke="black" cx="99" cy="-162" rx="27" ry="18"/>
<text text-anchor="middle" x="99" y="-156.95" font-family="Times,serif" font-size="14.00">A</text>
</g>
<!-- B2 -->
<g id="node5" class="node">
<title>B2</title>
<ellipse fill="gray" stroke="gray" cx="99" cy="-90" rx="27" ry="18"/>
<text text-anchor="middle" x="99" y="-84.95" font-family="Times,serif" font-size="14.00">B</text>
</g>
<!-- A2&#45;&gt;B2 -->
<g id="edge5" class="edge">
<title>A2&#45;&gt;B2</title>
<path fill="none" stroke="black" d="M93.12,-144.05C92.33,-136.57 92.08,-127.58 92.37,-119.14"/>
<polygon fill="black" stroke="black" points="95.85,-119.51 93.04,-109.3 88.87,-119.04 95.85,-119.51"/>
</g>
<!-- A2&#45;&gt;B2 -->
<g id="edge7" class="edge">
<title>A2&#45;&gt;B2</title>
<path fill="none" stroke="red" stroke-dasharray="5,2" d="M104.88,-144.05C105.88,-134.6 106.02,-122.72 105.29,-112.6"/>
<polygon fill="red" stroke="red" points="99.97,-109.23 109.93,-108.34 110.11,-110.33 100.15,-111.22 99.97,-109.23"/>
<polyline fill="none" stroke="red" points="104.86,-107.79 105.3,-112.77"/>
</g>
<!-- C2 -->
<g id="node6" class="node">
<title>C2</title>
<ellipse fill="none" stroke="black" cx="99" cy="-18" rx="27" ry="18"/>
<text text-anchor="middle" x="99" y="-12.95" font-family="Times,serif" font-size="14.00">C</text>
</g>
<!-- B2&#45;&gt;C2 -->
<g id="edge6" class="edge">
<title>B2&#45;&gt;C2</title>
<path fill="none" stroke="black" d="M93.12,-72.05C92.33,-64.57 92.08,-55.58 92.37,-47.14"/>
<polygon fill="black" stroke="black" points="95.85,-47.51 93.04,-37.3 88.87,-47.04 95.85,-47.51"/>
</g>
<!-- B2&#45;&gt;C2 -->
<g id="edge8" class="edge">
<title>B2&#45;&gt;C2</title>
<path fill="none" stroke="red" stroke-dasharray="5,2" d="M105.3,-67.24C106.02,-57.1 105.87,-45.22 104.86,-35.79"/>
<polygon fill="red" stroke="red" points="109.95,-71.5 99.98,-70.62 100.16,-68.63 110.12,-69.5 109.95,-71.5"/>
<polyline fill="none" stroke="red" points="104.88,-72.05 105.32,-67.07"/>
</g>
</g>
</svg>