<?xml version="1.0" encoding="UTF-8" standalone="no"?>
<!DOCTYPE svg PUBLIC "-//W3C//DTD SVG 1.1//EN"
 "http://www.w3.org/Graphics/SVG/1.1/DTD/svg11.dtd">
<!-- Generated by graphviz version 9.0.0 (20230911.1827)
 -->
<!-- Pages: 1 -->
<svg width="376pt" height="404pt"
 viewBox="0.00 0.00 375.80 404.00" xmlns="http://www.w3.org/2000/svg" xmlns:xlink="http://www.w3.org/1999/xlink">
<g id="graph0" class="graph" transform="scale(1 1) rotate(0) translate(4 400)">
<polygon fill="white" stroke="none" points="-4,4 -4,-400 371.8,-400 371.8,4 -4,4"/>
<!-- Anxiety -->
<g id="node1" class="node">
<title>Anxiety</title>
<ellipse fill="none" stroke="black" cx="152.73" cy="-378" rx="40.6" ry="18"/>
<text text-anchor="middle" x="152.73" y="-372.95" font-family="Times,serif" font-size="14.00">Anxiety</text>
</g>
<!-- Smoking -->
<g id="node2" class="node">
<title>Smoking</title>
<ellipse fill="none" stroke="Blue" cx="212.73" cy="-306" rx="44.7" ry="18"/>
<text text-anchor="middle" x="212.73" y="-300.95" font-family="Times,serif" font-size="14.00">Smoking</text>
</g>
<!-- Anxiety&#45;&gt;Smoking -->
<g id="edge1" class="edge">
<title>Anxiety&#45;&gt;Smoking</title>
<path fill="none" stroke="black" d="M166.65,-360.76C174.07,-352.11 183.35,-341.27 191.64,-331.6"/>
<polygon fill="black" stroke="black" points="194.05,-334.17 197.9,-324.3 188.74,-329.61 194.05,-334.17"/>
</g>
<!-- Yellow Fingers -->
<g id="node4" class="node">
<title>Yellow Fingers</title>
<ellipse fill="none" stroke="black" cx="67.73" cy="-234" rx="67.73" ry="18"/>
<text text-anchor="middle" x="67.73" y="-228.95" font-family="Times,serif" font-size="14.00">Yellow Fingers</text>
</g>
<!-- Smoking&#45;&gt;Yellow Fingers -->
<g id="edge3" class="edge">
<title>Smoking&#45;&gt;Yellow Fingers</title>
<path fill="none" stroke="black" d="M184.77,-291.5C163.48,-281.22 133.82,-266.91 109.69,-255.26"/>
<polygon fill="black" stroke="black" points="111.27,-252.13 100.75,-250.94 108.23,-258.44 111.27,-252.13"/>
</g>
<!-- Lung Cancer -->
<g id="node5" class="node">
<title>Lung Cancer</title>
<ellipse fill="none" stroke="black" cx="212.73" cy="-234" rx="59.03" ry="18"/>
<text text-anchor="middle" x="212.73" y="-228.95" font-family="Times,serif" font-size="14.00">Lung Cancer</text>
</g>
<!-- Smoking&#45;&gt;Lung Cancer -->
<g id="edge4" class="edge">
<title>Smoking&#45;&gt;Lung Cancer</title>
<path fill="none" stroke="black" d="M195.45,-289.12C192.73,-281.26 191.88,-271.56 192.89,-262.54"/>
<polygon fill="black" stroke="black" points="196.31,-263.3 194.99,-252.79 189.47,-261.83 196.31,-263.3"/>
</g>
<!-- Smoking&#45;&gt;Lung Cancer -->
<g id="edge13" class="edge">
<title>Smoking&#45;&gt;Lung Cancer</title>
<path fill="none" stroke="orange" d="M206.08,-276.24C205.88,-269.83 205.99,-263.14 206.41,-257.05"/>
<polygon fill="orange" stroke="orange" points="202.58,-276.43 206.72,-286.19 209.57,-275.98 202.58,-276.43"/>
<polygon fill="orange" stroke="orange" points="201.77,-252.67 211.73,-253.53 211.56,-255.52 201.6,-254.66 201.77,-252.67"/>
<polyline fill="none" stroke="orange" points="206.83,-252.1 206.4,-257.09"/>
</g>
<!-- Smoking&#45;&gt;Lung Cancer -->
<g id="edge17" class="edge">
<title>Smoking&#45;&gt;Lung Cancer</title>
<path fill="none" stroke="red" d="M219.38,-276.24C219.51,-272.01 219.51,-267.66 219.37,-263.44"/>
<polygon fill="red" stroke="red" points="215.89,-275.98 218.74,-286.19 222.88,-276.43 215.89,-275.98"/>
<polygon fill="red" stroke="red" points="222.88,-263.36 218.72,-253.61 215.89,-263.82 222.88,-263.36"/>
</g>
<!-- Smoking&#45;&gt;Lung Cancer -->
<g id="edge20" class="edge">
<title>Smoking&#45;&gt;Lung Cancer</title>
<path fill="none" stroke="green" d="M232.51,-277.94C233.12,-272.88 233.14,-267.59 232.56,-262.52"/>
<polygon fill="green" stroke="green" points="229.11,-277.12 230.34,-287.64 235.94,-278.64 229.11,-277.12"/>
<polygon fill="green" stroke="green" points="235.99,-261.83 230.47,-252.79 229.15,-263.3 235.99,-261.83"/>
</g>
<!-- Peer Pressure -->
<g id="node3" class="node">
<title>Peer Pressure</title>
<ellipse fill="none" stroke="black" cx="272.73" cy="-378" rx="61.08" ry="18"/>
<text text-anchor="middle" x="272.73" y="-372.95" font-family="Times,serif" font-size="14.00">Peer Pressure</text>
</g>
<!-- Peer Pressure&#45;&gt;Smoking -->
<g id="edge2" class="edge">
<title>Peer Pressure&#45;&gt;Smoking</title>
<path fill="none" stroke="black" d="M258.2,-360.05C250.95,-351.59 242.03,-341.19 234.02,-331.84"/>
<polygon fill="black" stroke="black" points="236.86,-329.77 227.69,-324.46 231.54,-334.33 236.86,-329.77"/>
</g>
<!-- Genetics -->
<g id="node6" class="node">
<title>Genetics</title>
<ellipse fill="none" stroke="black" cx="132.73" cy="-162" rx="43.16" ry="18"/>
<text text-anchor="middle" x="132.73" y="-156.95" font-family="Times,serif" font-size="14.00">Genetics</text>
</g>
<!-- Lung Cancer&#45;&gt;Genetics -->
<g id="edge14" class="edge">
<title>Lung Cancer&#45;&gt;Genetics</title>
<path fill="none" stroke="orange" d="M185.12,-214.15C174.92,-205.88 163.59,-196.08 154.02,-187.28"/>
<polygon fill="orange" stroke="orange" points="191.17,-212.59 184.91,-220.39 183.35,-219.14 189.61,-211.34 191.17,-212.59"/>
<polyline fill="none" stroke="orange" points="188.82,-217.12 184.92,-213.99"/>
<polygon fill="orange" stroke="orange" points="156.59,-184.9 146.91,-180.59 151.79,-189.99 156.59,-184.9"/>
</g>
<!-- Coughing -->
<g id="node9" class="node">
<title>Coughing</title>
<ellipse fill="none" stroke="black" cx="296.73" cy="-162" rx="47.26" ry="18"/>
<text text-anchor="middle" x="296.73" y="-156.95" font-family="Times,serif" font-size="14.00">Coughing</text>
</g>
<!-- Lung Cancer&#45;&gt;Coughing -->
<g id="edge9" class="edge">
<title>Lung Cancer&#45;&gt;Coughing</title>
<path fill="none" stroke="black" d="M227.19,-216.05C237.44,-206.68 251.41,-194.92 264.19,-184.86"/>
<polygon fill="black" stroke="black" points="266.25,-187.69 272.02,-178.81 261.97,-182.15 266.25,-187.69"/>
</g>
<!-- Lung Cancer&#45;&gt;Coughing -->
<g id="edge21" class="edge">
<title>Lung Cancer&#45;&gt;Coughing</title>
<path fill="none" stroke="green" d="M246.13,-210.46C255.6,-202.98 265.66,-194.62 274.34,-187.03"/>
<polygon fill="green" stroke="green" points="244.05,-207.65 238.29,-216.54 248.34,-213.18 244.05,-207.65"/>
<polygon fill="green" stroke="green" points="276.55,-189.75 281.67,-180.48 271.88,-184.53 276.55,-189.75"/>
</g>
<!-- Fatigue -->
<g id="node10" class="node">
<title>Fatigue</title>
<ellipse fill="none" stroke="black" cx="269.73" cy="-90" rx="38.56" ry="18"/>
<text text-anchor="middle" x="269.73" y="-84.95" font-family="Times,serif" font-size="14.00">Fatigue</text>
</g>
<!-- Lung Cancer&#45;&gt;Fatigue -->
<g id="edge10" class="edge">
<title>Lung Cancer&#45;&gt;Fatigue</title>
<path fill="none" stroke="black" d="M210.4,-215.58C212.96,-197.37 221.44,-168.14 231.73,-144 235.75,-134.57 240.93,-124.61 246.29,-115.91"/>
<polygon fill="black" stroke="black" points="249.17,-117.9 251.78,-107.63 243.34,-114.03 249.17,-117.9"/>
</g>
<!-- Lung Cancer&#45;&gt;Fatigue -->
<g id="edge18" class="edge">
<title>Lung Cancer&#45;&gt;Fatigue</title>
<path fill="none" stroke="red" d="M227.7,-205.12C233.98,-187.32 241.24,-163.93 249.73,-144 253.35,-135.51 257.9,-126.59 261.96,-118.55"/>
<polygon fill="red" stroke="red" points="224.42,-203.9 224.23,-214.49 230.98,-206.33 224.42,-203.9"/>
<polygon fill="red" stroke="red" points="265.09,-120.11 266.38,-109.59 258.82,-117.01 265.09,-120.11"/>
</g>
<!-- Genetics&#45;&gt;Lung Cancer -->
<g id="edge5" class="edge">
<title>Genetics&#45;&gt;Lung Cancer</title>
<path fill="none" stroke="black" d="M155.09,-177.66C166.32,-186.5 179.74,-197.99 190.88,-208.21"/>
<polygon fill="black" stroke="black" points="188.45,-210.73 198.14,-215.02 193.24,-205.62 188.45,-210.73"/>
</g>
<!-- Attention Disorder -->
<g id="node7" class="node">
<title>Attention Disorder</title>
<ellipse fill="none" stroke="black" cx="132.73" cy="-90" rx="80.52" ry="18"/>
<text text-anchor="middle" x="132.73" y="-84.95" font-family="Times,serif" font-size="14.00">Attention Disorder</text>
</g>
<!-- Genetics&#45;&gt;Attention Disorder -->
<g id="edge6" class="edge">
<title>Genetics&#45;&gt;Attention Disorder</title>
<path fill="none" stroke="black" d="M126.81,-143.7C126.06,-136.41 125.82,-127.73 126.08,-119.54"/>
<polygon fill="black" stroke="black" points="129.57,-119.82 126.73,-109.61 122.59,-119.36 129.57,-119.82"/>
</g>
<!-- Genetics&#45;&gt;Attention Disorder -->
<g id="edge15" class="edge">
<title>Genetics&#45;&gt;Attention Disorder</title>
<path fill="none" stroke="orange" d="M139.38,-132.24C139.51,-128.01 139.51,-123.66 139.37,-119.44"/>
<polygon fill="orange" stroke="orange" points="135.89,-131.98 138.74,-142.19 142.88,-132.43 135.89,-131.98"/>
<polygon fill="orange" stroke="orange" points="142.88,-119.36 138.72,-109.61 135.89,-119.82 142.88,-119.36"/>
</g>
<!-- Car Accident -->
<g id="node11" class="node">
<title>Car Accident</title>
<ellipse fill="none" stroke="Blue" cx="269.73" cy="-18" rx="59.54" ry="18"/>
<text text-anchor="middle" x="269.73" y="-12.95" font-family="Times,serif" font-size="14.00">Car Accident</text>
</g>
<!-- Attention Disorder&#45;&gt;Car Accident -->
<g id="edge11" class="edge">
<title>Attention Disorder&#45;&gt;Car Accident</title>
<path fill="none" stroke="black" d="M159.03,-72.59C178.1,-62.26 204.17,-48.9 226.27,-38.09"/>
<polygon fill="black" stroke="black" points="227.59,-41.34 235.07,-33.84 224.54,-35.04 227.59,-41.34"/>
</g>
<!-- Attention Disorder&#45;&gt;Car Accident -->
<g id="edge16" class="edge">
<title>Attention Disorder&#45;&gt;Car Accident</title>
<path fill="none" stroke="orange" d="M179,-68.53C197.19,-59.6 217.69,-49.13 234.64,-40.13"/>
<polygon fill="orange" stroke="orange" points="177.68,-65.28 170.22,-72.8 180.74,-71.57 177.68,-65.28"/>
<polygon fill="orange" stroke="orange" points="236.19,-43.26 243.35,-35.45 232.88,-37.1 236.19,-43.26"/>
</g>
<!-- Allergy -->
<g id="node8" class="node">
<title>Allergy</title>
<ellipse fill="none" stroke="black" cx="328.73" cy="-234" rx="39.07" ry="18"/>
<text text-anchor="middle" x="328.73" y="-228.95" font-family="Times,serif" font-size="14.00">Allergy</text>
</g>
<!-- Allergy&#45;&gt;Coughing -->
<g id="edge7" class="edge">
<title>Allergy&#45;&gt;Coughing</title>
<path fill="none" stroke="black" d="M320.98,-216.05C317.41,-208.23 313.07,-198.75 309.06,-189.98"/>
<polygon fill="black" stroke="black" points="312.37,-188.81 305.03,-181.17 306.01,-191.72 312.37,-188.81"/>
</g>
<!-- Coughing&#45;&gt;Fatigue -->
<g id="edge8" class="edge">
<title>Coughing&#45;&gt;Fatigue</title>
<path fill="none" stroke="black" d="M284.49,-144.41C280.76,-136.88 276.98,-127.75 273.97,-119.19"/>
<polygon fill="black" stroke="black" points="277.37,-118.35 270.99,-109.89 270.71,-120.48 277.37,-118.35"/>
</g>
<!-- Coughing&#45;&gt;Fatigue -->
<g id="edge22" class="edge">
<title>Coughing&#45;&gt;Fatigue</title>
<path fill="none" stroke="green" d="M292.48,-132.76C290.7,-127.73 288.66,-122.49 286.52,-117.5"/>
<polygon fill="green" stroke="green" points="289.13,-133.8 295.51,-142.25 295.8,-131.66 289.13,-133.8"/>
<polygon fill="green" stroke="green" points="289.75,-116.14 282.38,-108.52 283.39,-119.07 289.75,-116.14"/>
</g>
<!-- Fatigue&#45;&gt;Car Accident -->
<g id="edge12" class="edge">
<title>Fatigue&#45;&gt;Car Accident</title>
<path fill="none" stroke="black" d="M258.05,-72.41C256.4,-64.85 255.87,-55.69 256.47,-47.1"/>
<polygon fill="black" stroke="black" points="259.9,-47.83 257.77,-37.46 252.96,-46.9 259.9,-47.83"/>
</g>
<!-- Fatigue&#45;&gt;Car Accident -->
<g id="edge19" class="edge">
<title>Fatigue&#45;&gt;Car Accident</title>
<path fill="none" stroke="red" d="M269.73,-60.24C269.73,-56.01 269.73,-51.66 269.73,-47.44"/>
<polygon fill="red" stroke="red" points="266.23,-60.18 269.73,-70.18 273.23,-60.18 266.23,-60.18"/>
<polygon fill="red" stroke="red" points="273.23,-47.62 269.73,-37.62 266.23,-47.62 273.23,-47.62"/>
</g>
<!-- Fatigue&#45;&gt;Car Accident -->
<g id="edge23" class="edge">
<title>Fatigue&#45;&gt;Car Accident</title>
<path fill="none" stroke="green" d="M282.98,-61.02C283.3,-56.51 283.31,-51.85 283.01,-47.33"/>
<polygon fill="green" stroke="green" points="279.52,-60.53 281.62,-70.91 286.45,-61.49 279.52,-60.53"/>
<polygon fill="green" stroke="green" points="286.48,-46.9 281.69,-37.46 279.54,-47.83 286.48,-46.9"/>
</g>
</g>
</svg>