<?xml version="1.0" encoding="UTF-8" standalone="no"?>
<!DOCTYPE svg PUBLIC "-//W3C//DTD SVG 1.1//EN"
 "http://www.w3.org/Graphics/SVG/1.1/DTD/svg11.dtd">
<!-- Generated by graphviz version 9.0.0 (20230911.1827)
 -->
<!-- Pages: 1 -->
<svg width="278pt" height="116pt"
 viewBox="0.00 0.00 278.00 116.00" xmlns="http://www.w3.org/2000/svg" xmlns:xlink="http://www.w3.org/1999/xlink">
<g id="graph0" class="graph" transform="scale(1 1) rotate(0) translate(4 112)">
<polygon fill="white" stroke="none" points="-4,4 -4,-112 274,-112 274,4 -4,4"/>
<!-- A -->
<g id="node1" class="node">
<title>A</title>
<ellipse fill="none" stroke="black" cx="27" cy="-90" rx="27" ry="18"/>
<text text-anchor="middle" x="27" y="-84.95" font-family="Times,serif" font-size="14.00">A</text>
</g>
<!-- B -->
<g id="node2" class="node">
<title>B</title>
<ellipse fill="none" stroke="black" cx="63" cy="-18" rx="27" ry="18"/>
<text text-anchor="middle" x="63" y="-12.95" font-family="Times,serif" font-size="14.00">B</text>
</g>
<!-- A&#45;&gt;B -->
<g id="edge2" class="edge">
<title>A&#45;&gt;B</title>
<path fill="none" stroke="black" d="M29.98,-71.7C33.47,-63.22 38.6,-52.88 43.87,-43.6"/>
<polygon fill="black" stroke="black" points="46.87,-45.41 49.02,-35.04 40.87,-41.8 46.87,-45.41"/>
</g>
<!-- A&#45;&gt;B -->
<g id="edge4" class="edge">
<title>A&#45;&gt;B</title>
<path fill="none" stroke="red" stroke-dasharray="5,2" d="M40.27,-74.15C46.47,-64.46 53.28,-51.64 58.09,-40.8"/>
<polygon fill="red" stroke="red" points="55.03,-35.24 64.22,-39.18 63.44,-41.02 54.24,-37.08 55.03,-35.24"/>
<polyline fill="none" stroke="red" points="60.02,-36.29 58.05,-40.89"/>
</g>
<!-- C -->
<g id="node3" class="node">
<title>C</title>
<ellipse fill="none" stroke="black" cx="99" cy="-90" rx="27" ry="18"/>
<text text-anchor="middle" x="99" y="-84.95" font-family="Times,serif" font-size="14.00">C</text>
</g>
<!-- C&#45;&gt;B -->
<g id="edge1" class="edge">
<title>C&#45;&gt;B</title>
<path fill="none" stroke="red" stroke-dasharray="5,2" d="M85.73,-74.15C79.53,-64.46 72.72,-51.64 67.91,-40.8"/>
<polygon fill="red" stroke="red" points="61.78,-39.18 70.97,-35.24 71.76,-37.08 62.56,-41.02 61.78,-39.18"/>
<polyline fill="none" stroke="red" points="65.98,-36.29 67.95,-40.89"/>
</g>
<!-- C&#45;&gt;B -->
<g id="edge3" class="edge">
<title>C&#45;&gt;B</title>
<path fill="none" stroke="black" d="M96.02,-71.7C92.53,-63.22 87.4,-52.88 82.13,-43.6"/>
<polygon fill="black" stroke="black" points="85.13,-41.8 76.98,-35.04 79.13,-45.41 85.13,-41.8"/>
</g>
<!-- A2 -->
<g id="node4" class="node">
<title>A2</title>
<ellipse fill="none" stroke="black" cx="171" cy="-90" rx="27" ry="18"/>
<text text-anchor="middle" x="171" y="-84.95" font-family="Times,serif" font-size="14.00">A</text>
</g>
<!-- B2 -->
<g id="node5" class="node">
<title>B2</title>
<ellipse fill="gray" stroke="gray" cx="207" cy="-18" rx="27" ry="18"/>
<text text-anchor="middle" x="207" y="-12.95" font-family="Times,serif" font-size="14.00">B</text>
</g>
<!-- A2&#45;&gt;B2 -->
<g id="edge6" class="edge">
<title>A2&#45;&gt;B2</title>
<path fill="none" stroke="black" d="M173.98,-71.7C177.47,-63.22 182.6,-52.88 187.87,-43.6"/>
<polygon fill="black" stroke="black" points="190.87,-45.41 193.02,-35.04 184.87,-41.8 190.87,-45.41"/>
</g>
<!-- A2&#45;&gt;B2 -->
<g id="edge8" class="edge">
<title>A2&#45;&gt;B2</title>
<path fill="none" stroke="red" stroke-dasharray="5,2" d="M190.18,-64.31C193.47,-58.52 196.69,-52.32 199.5,-46.43"/>
<polygon fill="red" stroke="red" points="187.2,-62.48 185.05,-72.86 193.2,-66.08 187.2,-62.48"/>
<polygon fill="red" stroke="red" points="202.53,-48.23 203.41,-37.67 196.14,-45.38 202.53,-48.23"/>
</g>
<!-- C2 -->
<g id="node6" class="node">
<title>C2</title>
<ellipse fill="none" stroke="black" cx="243" cy="-90" rx="27" ry="18"/>
<text text-anchor="middle" x="243" y="-84.95" font-family="Times,serif" font-size="14.00">C</text>
</g>
<!-- C2&#45;&gt;B2 -->
<g id="edge5" class="edge">
<title>C2&#45;&gt;B2</title>
<path fill="none" stroke="red" stroke-dasharray="5,2" d="M223.82,-64.31C220.53,-58.52 217.31,-52.32 214.5,-46.43"/>
<polygon fill="red" stroke="red" points="220.8,-66.08 228.95,-72.86 226.8,-62.48 220.8,-66.08"/>
<polygon fill="red" stroke="red" points="217.86,-45.38 210.59,-37.67 211.47,-48.23 217.86,-45.38"/>
</g>
<!-- C2&#45;&gt;B2 -->
<g id="edge7" class="edge">
<title>C2&#45;&gt;B2</title>
<path fill="none" stroke="black" d="M240.02,-71.7C236.53,-63.22 231.4,-52.88 226.13,-43.6"/>
<polygon fill="black" stroke="black" points="229.13,-41.8 220.98,-35.04 223.13,-45.41 229.13,-41.8"/>
</g>
</g>
</svg>