<?xml version="1.0" encoding="UTF-8" standalone="no"?>
<!DOCTYPE svg PUBLIC "-//W3C//DTD SVG 1.1//EN"
 "http://www.w3.org/Graphics/SVG/1.1/DTD/svg11.dtd">
<!-- Generated by graphviz version 9.0.0 (20230911.1827)
 -->
<!-- Pages: 1 -->
<svg width="337pt" height="188pt"
 viewBox="0.00 0.00 337.04 188.00" xmlns="http://www.w3.org/2000/svg" xmlns:xlink="http://www.w3.org/1999/xlink">
<g id="graph0" class="graph" transform="scale(1 1) rotate(0) translate(4 184)">
<polygon fill="white" stroke="none" points="-4,4 -4,-184 333.04,-184 333.04,4 -4,4"/>
<!-- U -->
<g id="node1" class="node">
<title>U</title>
<ellipse fill="none" stroke="black" cx="27" cy="-162" rx="27" ry="18"/>
<text text-anchor="middle" x="27" y="-156.95" font-family="Times,serif" font-size="14.00">U</text>
</g>
<!-- Y -->
<g id="node2" class="node">
<title>Y</title>
<ellipse fill="none" stroke="black" cx="65" cy="-18" rx="27" ry="18"/>
<text text-anchor="middle" x="65" y="-12.95" font-family="Times,serif" font-size="14.00">Y</text>
</g>
<!-- U&#45;&gt;Y -->
<g id="edge1" class="edge">
<title>U&#45;&gt;Y</title>
<path fill="none" stroke="black" d="M24.56,-143.8C22.61,-125.52 21.33,-95.99 29,-72 32.3,-61.69 38.3,-51.55 44.46,-42.95"/>
<polygon fill="black" stroke="black" points="47.12,-45.23 50.44,-35.17 41.57,-40.97 47.12,-45.23"/>
</g>
<!-- T -->
<g id="node3" class="node">
<title>T</title>
<ellipse fill="none" stroke="black" cx="65" cy="-90" rx="27" ry="18"/>
<text text-anchor="middle" x="65" y="-84.95" font-family="Times,serif" font-size="14.00">T</text>
</g>
<!-- U&#45;&gt;T -->
<g id="edge2" class="edge">
<title>U&#45;&gt;T</title>
<path fill="none" stroke="black" d="M35.81,-144.76C40.27,-136.55 45.8,-126.37 50.84,-117.09"/>
<polygon fill="black" stroke="black" points="53.82,-118.94 55.51,-108.48 47.67,-115.6 53.82,-118.94"/>
</g>
<!-- T&#45;&gt;Y -->
<g id="edge5" class="edge">
<title>T&#45;&gt;Y</title>
<path fill="none" stroke="black" d="M65,-71.7C65,-64.41 65,-55.73 65,-47.54"/>
<polygon fill="black" stroke="black" points="68.5,-47.62 65,-37.62 61.5,-47.62 68.5,-47.62"/>
</g>
<!-- X -->
<g id="node4" class="node">
<title>X</title>
<ellipse fill="none" stroke="black" cx="108" cy="-162" rx="27" ry="18"/>
<text text-anchor="middle" x="108" y="-156.95" font-family="Times,serif" font-size="14.00">X</text>
</g>
<!-- X&#45;&gt;Y -->
<g id="edge4" class="edge">
<title>X&#45;&gt;Y</title>
<path fill="none" stroke="black" d="M109.21,-143.73C109.92,-125.4 109.37,-95.84 101,-72 97.41,-61.78 91.35,-51.67 85.21,-43.06"/>
<polygon fill="black" stroke="black" points="88.12,-41.11 79.29,-35.26 82.55,-45.34 88.12,-41.11"/>
</g>
<!-- X&#45;&gt;T -->
<g id="edge3" class="edge">
<title>X&#45;&gt;T</title>
<path fill="none" stroke="black" d="M98.03,-144.76C92.93,-136.46 86.59,-126.15 80.84,-116.79"/>
<polygon fill="black" stroke="black" points="83.93,-115.13 75.71,-108.44 77.96,-118.79 83.93,-115.13"/>
</g>
<!-- parents -->
<g id="node5" class="node">
<title>parents</title>
<ellipse fill="none" stroke="black" cx="195" cy="-162" rx="37.53" ry="18"/>
<text text-anchor="middle" x="195" y="-156.95" font-family="Times,serif" font-size="14.00">parents</text>
</g>
<!-- performance -->
<g id="node6" class="node">
<title>performance</title>
<ellipse fill="none" stroke="black" cx="244" cy="-18" rx="58" ry="18"/>
<text text-anchor="middle" x="244" y="-12.95" font-family="Times,serif" font-size="14.00">performance</text>
</g>
<!-- parents&#45;&gt;performance -->
<g id="edge6" class="edge">
<title>parents&#45;&gt;performance</title>
<path fill="none" stroke="black" d="M191.42,-143.92C188.36,-125.49 185.76,-95.6 195,-72 199.2,-61.26 206.72,-51.39 214.62,-43.16"/>
<polygon fill="black" stroke="black" points="217.01,-45.71 221.78,-36.25 212.15,-40.67 217.01,-45.71"/>
</g>
<!-- tutoring -->
<g id="node7" class="node">
<title>tutoring</title>
<ellipse fill="none" stroke="black" cx="244" cy="-90" rx="40.09" ry="18"/>
<text text-anchor="middle" x="244" y="-84.95" font-family="Times,serif" font-size="14.00">tutoring</text>
</g>
<!-- parents&#45;&gt;tutoring -->
<g id="edge7" class="edge">
<title>parents&#45;&gt;tutoring</title>
<path fill="none" stroke="black" d="M206.61,-144.41C212.41,-136.13 219.55,-125.92 226.04,-116.66"/>
<polygon fill="black" stroke="black" points="228.74,-118.91 231.6,-108.71 223,-114.9 228.74,-118.91"/>
</g>
<!-- tutoring&#45;&gt;performance -->
<g id="edge10" class="edge">
<title>tutoring&#45;&gt;performance</title>
<path fill="none" stroke="black" d="M244,-71.7C244,-64.41 244,-55.73 244,-47.54"/>
<polygon fill="black" stroke="black" points="247.5,-47.62 244,-37.62 240.5,-47.62 247.5,-47.62"/>
</g>
<!-- interest -->
<g id="node8" class="node">
<title>interest</title>
<ellipse fill="none" stroke="black" cx="291" cy="-162" rx="38.04" ry="18"/>
<text text-anchor="middle" x="291" y="-156.95" font-family="Times,serif" font-size="14.00">interest</text>
</g>
<!-- interest&#45;&gt;performance -->
<g id="edge9" class="edge">
<title>interest&#45;&gt;performance</title>
<path fill="none" stroke="black" d="M295.17,-143.92C298.82,-125.49 302.24,-95.6 293,-72 288.8,-61.26 281.28,-51.39 273.38,-43.16"/>
<polygon fill="black" stroke="black" points="275.85,-40.67 266.22,-36.25 270.99,-45.71 275.85,-40.67"/>
</g>
<!-- interest&#45;&gt;tutoring -->
<g id="edge8" class="edge">
<title>interest&#45;&gt;tutoring</title>
<path fill="none" stroke="black" d="M279.86,-144.41C274.36,-136.22 267.59,-126.14 261.43,-116.95"/>
<polygon fill="black" stroke="black" points="264.38,-115.08 255.9,-108.73 258.57,-118.98 264.38,-115.08"/>
</g>
</g>
</svg>