<?xml version="1.0" encoding="UTF-8" standalone="no"?>
<!DOCTYPE svg PUBLIC "-//W3C//DTD SVG 1.1//EN"
 "http://www.w3.org/Graphics/SVG/1.1/DTD/svg11.dtd">
<!-- Generated by graphviz version 9.0.0 (20230911.1827)
 -->
<!-- Pages: 1 -->
<svg width="352pt" height="260pt"
 viewBox="0.00 0.00 352.04 260.00" xmlns="http://www.w3.org/2000/svg" xmlns:xlink="http://www.w3.org/1999/xlink">
<g id="graph0" class="graph" transform="scale(1 1) rotate(0) translate(4 256)">
<polygon fill="white" stroke="none" points="-4,4 -4,-256 348.04,-256 348.04,4 -4,4"/>
<!-- U -->
<g id="node1" class="node">
<title>U</title>
<ellipse fill="none" stroke="black" cx="27" cy="-234" rx="27" ry="18"/>
<text text-anchor="middle" x="27" y="-228.95" font-family="Times,serif" font-size="14.00">U</text>
</g>
<!-- X1 -->
<g id="node2" class="node">
<title>X1</title>
<ellipse fill="gray" stroke="gray" cx="27" cy="-162" rx="27" ry="18"/>
<text text-anchor="middle" x="27" y="-156.95" font-family="Times,serif" font-size="14.00">X1</text>
</g>
<!-- U&#45;&gt;X1 -->
<g id="edge1" class="edge">
<title>U&#45;&gt;X1</title>
<path fill="none" stroke="black" d="M27,-215.7C27,-208.41 27,-199.73 27,-191.54"/>
<polygon fill="black" stroke="black" points="30.5,-191.62 27,-181.62 23.5,-191.62 30.5,-191.62"/>
</g>
<!-- Y -->
<g id="node3" class="node">
<title>Y</title>
<ellipse fill="none" stroke="black" cx="78" cy="-18" rx="27" ry="18"/>
<text text-anchor="middle" x="78" y="-12.95" font-family="Times,serif" font-size="14.00">Y</text>
</g>
<!-- X1&#45;&gt;Y -->
<g id="edge2" class="edge">
<title>X1&#45;&gt;Y</title>
<path fill="none" stroke="black" d="M27.73,-143.68C29,-125.3 32.48,-95.7 42,-72 46.04,-61.95 52.21,-51.88 58.31,-43.26"/>
<polygon fill="black" stroke="black" points="60.97,-45.54 64.14,-35.43 55.36,-41.35 60.97,-45.54"/>
</g>
<!-- T -->
<g id="node4" class="node">
<title>T</title>
<ellipse fill="none" stroke="black" cx="78" cy="-90" rx="27" ry="18"/>
<text text-anchor="middle" x="78" y="-84.95" font-family="Times,serif" font-size="14.00">T</text>
</g>
<!-- X1&#45;&gt;T -->
<g id="edge3" class="edge">
<title>X1&#45;&gt;T</title>
<path fill="none" stroke="black" d="M38.32,-145.46C44.72,-136.67 52.88,-125.48 60.13,-115.53"/>
<polygon fill="black" stroke="black" points="62.76,-117.86 65.82,-107.72 57.1,-113.74 62.76,-117.86"/>
</g>
<!-- T&#45;&gt;Y -->
<g id="edge6" class="edge">
<title>T&#45;&gt;Y</title>
<path fill="none" stroke="black" d="M78,-71.7C78,-64.41 78,-55.73 78,-47.54"/>
<polygon fill="black" stroke="black" points="81.5,-47.62 78,-37.62 74.5,-47.62 81.5,-47.62"/>
</g>
<!-- X2 -->
<g id="node5" class="node">
<title>X2</title>
<ellipse fill="gray" stroke="gray" cx="101" cy="-162" rx="27" ry="18"/>
<text text-anchor="middle" x="101" y="-156.95" font-family="Times,serif" font-size="14.00">X2</text>
</g>
<!-- X2&#45;&gt;Y -->
<g id="edge5" class="edge">
<title>X2&#45;&gt;Y</title>
<path fill="none" stroke="black" d="M107.75,-144.26C114.07,-126.12 121.53,-96.48 114,-72 110.82,-61.65 104.85,-51.51 98.67,-42.91"/>
<polygon fill="black" stroke="black" points="101.55,-40.91 92.67,-35.13 96.01,-45.19 101.55,-40.91"/>
</g>
<!-- X2&#45;&gt;T -->
<g id="edge4" class="edge">
<title>X2&#45;&gt;T</title>
<path fill="none" stroke="black" d="M95.43,-144.05C92.92,-136.4 89.88,-127.16 87.05,-118.56"/>
<polygon fill="black" stroke="black" points="90.44,-117.63 83.99,-109.23 83.79,-119.82 90.44,-117.63"/>
</g>
<!-- parents -->
<g id="node6" class="node">
<title>parents</title>
<ellipse fill="none" stroke="black" cx="198" cy="-234" rx="37.53" ry="18"/>
<text text-anchor="middle" x="198" y="-228.95" font-family="Times,serif" font-size="14.00">parents</text>
</g>
<!-- one&#45;to&#45;one -->
<g id="node7" class="node">
<title>one&#45;to&#45;one</title>
<ellipse fill="gray" stroke="gray" cx="198" cy="-162" rx="50.84" ry="18"/>
<text text-anchor="middle" x="198" y="-156.95" font-family="Times,serif" font-size="14.00">one&#45;to&#45;one</text>
</g>
<!-- parents&#45;&gt;one&#45;to&#45;one -->
<g id="edge7" class="edge">
<title>parents&#45;&gt;one&#45;to&#45;one</title>
<path fill="none" stroke="black" d="M198,-215.7C198,-208.41 198,-199.73 198,-191.54"/>
<polygon fill="black" stroke="black" points="201.5,-191.62 198,-181.62 194.5,-191.62 201.5,-191.62"/>
</g>
<!-- performance -->
<g id="node8" class="node">
<title>performance</title>
<ellipse fill="none" stroke="black" cx="252" cy="-18" rx="58" ry="18"/>
<text text-anchor="middle" x="252" y="-12.95" font-family="Times,serif" font-size="14.00">performance</text>
</g>
<!-- one&#45;to&#45;one&#45;&gt;performance -->
<g id="edge8" class="edge">
<title>one&#45;to&#45;one&#45;&gt;performance</title>
<path fill="none" stroke="black" d="M195.63,-143.83C193.82,-125.32 193.09,-95.37 203,-72 207.54,-61.3 215.22,-51.39 223.18,-43.11"/>
<polygon fill="black" stroke="black" points="225.61,-45.63 230.36,-36.16 220.74,-40.6 225.61,-45.63"/>
</g>
<!-- tutoring -->
<g id="node9" class="node">
<title>tutoring</title>
<ellipse fill="none" stroke="black" cx="252" cy="-90" rx="40.09" ry="18"/>
<text text-anchor="middle" x="252" y="-84.95" font-family="Times,serif" font-size="14.00">tutoring</text>
</g>
<!-- one&#45;to&#45;one&#45;&gt;tutoring -->
<g id="edge9" class="edge">
<title>one&#45;to&#45;one&#45;&gt;tutoring</title>
<path fill="none" stroke="black" d="M210.8,-144.41C217.25,-136.04 225.22,-125.71 232.43,-116.37"/>
<polygon fill="black" stroke="black" points="235.03,-118.72 238.37,-108.67 229.49,-114.45 235.03,-118.72"/>
</g>
<!-- tutoring&#45;&gt;performance -->
<g id="edge12" class="edge">
<title>tutoring&#45;&gt;performance</title>
<path fill="none" stroke="black" d="M252,-71.7C252,-64.41 252,-55.73 252,-47.54"/>
<polygon fill="black" stroke="black" points="255.5,-47.62 252,-37.62 248.5,-47.62 255.5,-47.62"/>
</g>
<!-- interest -->
<g id="node10" class="node">
<title>interest</title>
<ellipse fill="gray" stroke="gray" cx="306" cy="-162" rx="38.04" ry="18"/>
<text text-anchor="middle" x="306" y="-156.95" font-family="Times,serif" font-size="14.00">interest</text>
</g>
<!-- interest&#45;&gt;performance -->
<g id="edge11" class="edge">
<title>interest&#45;&gt;performance</title>
<path fill="none" stroke="black" d="M308.37,-143.83C310.18,-125.32 310.91,-95.37 301,-72 296.46,-61.3 288.78,-51.39 280.82,-43.11"/>
<polygon fill="black" stroke="black" points="283.26,-40.6 273.64,-36.16 278.39,-45.63 283.26,-40.6"/>
</g>
<!-- interest&#45;&gt;tutoring -->
<g id="edge10" class="edge">
<title>interest&#45;&gt;tutoring</title>
<path fill="none" stroke="black" d="M293.48,-144.76C286.93,-136.28 278.78,-125.71 271.44,-116.2"/>
<polygon fill="black" stroke="black" points="274.26,-114.13 265.38,-108.35 268.72,-118.4 274.26,-114.13"/>
</g>
</g>
</svg>