<?xml version="1.0" encoding="UTF-8" standalone="no"?>
<!DOCTYPE svg PUBLIC "-//W3C//DTD SVG 1.1//EN"
 "http://www.w3.org/Graphics/SVG/1.1/DTD/svg11.dtd">
<!-- Generated by graphviz version 9.0.0 (20230911.1827)
 -->
<!-- Pages: 1 -->
<svg width="259pt" height="188pt"
 viewBox="0.00 0.00 259.00 188.00" xmlns="http://www.w3.org/2000/svg" xmlns:xlink="http://www.w3.org/1999/xlink">
<g id="graph0" class="graph" transform="scale(1 1) rotate(0) translate(4 184)">
<polygon fill="white" stroke="none" points="-4,4 -4,-184 255,-184 255,4 -4,4"/>
<!-- X -->
<g id="node1" class="node">
<title>X</title>
<ellipse fill="none" stroke="black" cx="73" cy="-162" rx="27" ry="18"/>
<text text-anchor="middle" x="73" y="-156.95" font-family="Times,serif" font-size="14.00">X</text>
</g>
<!-- T -->
<g id="node2" class="node">
<title>T</title>
<ellipse fill="none" stroke="black" cx="27" cy="-90" rx="27" ry="18"/>
<text text-anchor="middle" x="27" y="-84.95" font-family="Times,serif" font-size="14.00">T</text>
</g>
<!-- X&#45;&gt;T -->
<g id="edge1" class="edge">
<title>X&#45;&gt;T</title>
<path fill="none" stroke="black" d="M62.56,-145.12C56.97,-136.61 49.96,-125.94 43.64,-116.32"/>
<polygon fill="black" stroke="black" points="46.64,-114.52 38.23,-108.09 40.79,-118.37 46.64,-114.52"/>
</g>
<!-- Y -->
<g id="node3" class="node">
<title>Y</title>
<ellipse fill="none" stroke="black" cx="37" cy="-18" rx="27" ry="18"/>
<text text-anchor="middle" x="37" y="-12.95" font-family="Times,serif" font-size="14.00">Y</text>
</g>
<!-- X&#45;&gt;Y -->
<g id="edge2" class="edge">
<title>X&#45;&gt;Y</title>
<path fill="none" stroke="black" d="M72.8,-143.59C72.19,-125.4 70.06,-96.18 63,-72 60.33,-62.87 56.18,-53.39 51.98,-45.02"/>
<polygon fill="black" stroke="black" points="55.21,-43.65 47.43,-36.45 49.03,-46.93 55.21,-43.65"/>
</g>
<!-- T&#45;&gt;Y -->
<g id="edge3" class="edge">
<title>T&#45;&gt;Y</title>
<path fill="none" stroke="black" d="M29.47,-71.7C30.53,-64.32 31.78,-55.52 32.96,-47.25"/>
<polygon fill="black" stroke="black" points="36.39,-48 34.34,-37.6 29.46,-47.01 36.39,-48"/>
</g>
<!-- interest -->
<g id="node4" class="node">
<title>interest</title>
<ellipse fill="none" stroke="black" cx="176" cy="-162" rx="38.04" ry="18"/>
<text text-anchor="middle" x="176" y="-156.95" font-family="Times,serif" font-size="14.00">interest</text>
</g>
<!-- tutoring -->
<g id="node5" class="node">
<title>tutoring</title>
<ellipse fill="none" stroke="black" cx="159" cy="-90" rx="40.09" ry="18"/>
<text text-anchor="middle" x="159" y="-84.95" font-family="Times,serif" font-size="14.00">tutoring</text>
</g>
<!-- interest&#45;&gt;tutoring -->
<g id="edge4" class="edge">
<title>interest&#45;&gt;tutoring</title>
<path fill="none" stroke="black" d="M171.8,-143.7C170.01,-136.32 167.87,-127.52 165.86,-119.25"/>
<polygon fill="black" stroke="black" points="169.27,-118.47 163.51,-109.58 162.47,-120.12 169.27,-118.47"/>
</g>
<!-- performance -->
<g id="node6" class="node">
<title>performance</title>
<ellipse fill="none" stroke="black" cx="193" cy="-18" rx="58" ry="18"/>
<text text-anchor="middle" x="193" y="-12.95" font-family="Times,serif" font-size="14.00">performance</text>
</g>
<!-- interest&#45;&gt;performance -->
<g id="edge5" class="edge">
<title>interest&#45;&gt;performance</title>
<path fill="none" stroke="black" d="M188.9,-144.9C196.06,-134.92 204.25,-121.46 208,-108 213.59,-87.94 209.33,-64.72 203.95,-47.03"/>
<polygon fill="black" stroke="black" points="207.32,-46.09 200.82,-37.73 200.69,-48.32 207.32,-46.09"/>
</g>
<!-- tutoring&#45;&gt;performance -->
<g id="edge6" class="edge">
<title>tutoring&#45;&gt;performance</title>
<path fill="none" stroke="black" d="M167.23,-72.05C170.97,-64.35 175.5,-55.03 179.71,-46.36"/>
<polygon fill="black" stroke="black" points="182.73,-48.16 183.95,-37.64 176.43,-45.1 182.73,-48.16"/>
</g>
</g>
</svg>