<?xml version="1.0" encoding="UTF-8" standalone="no"?>
<!DOCTYPE svg PUBLIC "-//W3C//DTD SVG 1.1//EN"
 "http://www.w3.org/Graphics/SVG/1.1/DTD/svg11.dtd">
<!-- Generated by graphviz version 9.0.0 (20230911.1827)
 -->
<!-- Pages: 1 -->
<svg width="512pt" height="404pt"
 viewBox="0.00 0.00 512.25 404.00" xmlns="http://www.w3.org/2000/svg" xmlns:xlink="http://www.w3.org/1999/xlink">
<g id="graph0" class="graph" transform="scale(1 1) rotate(0) translate(4 400)">
<polygon fill="white" stroke="none" points="-4,4 -4,-400 508.25,-400 508.25,4 -4,4"/>
<!-- Anxiety -->
<g id="node1" class="node">
<title>Anxiety</title>
<ellipse fill="none" stroke="black" cx="89.73" cy="-378" rx="40.6" ry="18"/>
<text text-anchor="middle" x="89.73" y="-372.95" font-family="Times,serif" font-size="14.00">Anxiety</text>
</g>
<!-- Smoking -->
<g id="node2" class="node">
<title>Smoking</title>
<ellipse fill="none" stroke="black" cx="149.73" cy="-306" rx="44.7" ry="18"/>
<text text-anchor="middle" x="149.73" y="-300.95" font-family="Times,serif" font-size="14.00">Smoking</text>
</g>
<!-- Anxiety&#45;&gt;Smoking -->
<g id="edge1" class="edge">
<title>Anxiety&#45;&gt;Smoking</title>
<path fill="none" stroke="black" d="M103.65,-360.76C111.07,-352.11 120.35,-341.27 128.64,-331.6"/>
<polygon fill="black" stroke="black" points="131.05,-334.17 134.9,-324.3 125.74,-329.61 131.05,-334.17"/>
</g>
<!-- Yellow Fingers -->
<g id="node4" class="node">
<title>Yellow Fingers</title>
<ellipse fill="none" stroke="black" cx="67.73" cy="-234" rx="67.73" ry="18"/>
<text text-anchor="middle" x="67.73" y="-228.95" font-family="Times,serif" font-size="14.00">Yellow Fingers</text>
</g>
<!-- Smoking&#45;&gt;Yellow Fingers -->
<g id="edge3" class="edge">
<title>Smoking&#45;&gt;Yellow Fingers</title>
<path fill="none" stroke="black" d="M131.53,-289.46C121.08,-280.54 107.73,-269.14 95.94,-259.08"/>
<polygon fill="black" stroke="black" points="98.34,-256.53 88.46,-252.7 93.79,-261.85 98.34,-256.53"/>
</g>
<!-- Lung Cancer -->
<g id="node5" class="node">
<title>Lung Cancer</title>
<ellipse fill="none" stroke="black" cx="212.73" cy="-234" rx="59.03" ry="18"/>
<text text-anchor="middle" x="212.73" y="-228.95" font-family="Times,serif" font-size="14.00">Lung Cancer</text>
</g>
<!-- Smoking&#45;&gt;Lung Cancer -->
<g id="edge4" class="edge">
<title>Smoking&#45;&gt;Lung Cancer</title>
<path fill="none" stroke="black" d="M164.34,-288.76C172.02,-280.23 181.61,-269.58 190.21,-260.02"/>
<polygon fill="black" stroke="black" points="192.66,-262.53 196.75,-252.76 187.46,-257.85 192.66,-262.53"/>
</g>
<!-- Peer Pressure -->
<g id="node3" class="node">
<title>Peer Pressure</title>
<ellipse fill="none" stroke="black" cx="209.73" cy="-378" rx="61.08" ry="18"/>
<text text-anchor="middle" x="209.73" y="-372.95" font-family="Times,serif" font-size="14.00">Peer Pressure</text>
</g>
<!-- Peer Pressure&#45;&gt;Smoking -->
<g id="edge2" class="edge">
<title>Peer Pressure&#45;&gt;Smoking</title>
<path fill="none" stroke="black" d="M195.2,-360.05C187.95,-351.59 179.03,-341.19 171.02,-331.84"/>
<polygon fill="black" stroke="black" points="173.86,-329.77 164.69,-324.46 168.54,-334.33 173.86,-329.77"/>
</g>
<!-- Coughing -->
<g id="node9" class="node">
<title>Coughing</title>
<ellipse fill="none" stroke="black" cx="277.73" cy="-162" rx="47.26" ry="18"/>
<text text-anchor="middle" x="277.73" y="-156.95" font-family="Times,serif" font-size="14.00">Coughing</text>
</g>
<!-- Lung Cancer&#45;&gt;Coughing -->
<g id="edge9" class="edge">
<title>Lung Cancer&#45;&gt;Coughing</title>
<path fill="none" stroke="black" d="M228.13,-216.41C236.07,-207.87 245.9,-197.28 254.71,-187.79"/>
<polygon fill="black" stroke="black" points="257.17,-190.29 261.41,-180.58 252.04,-185.53 257.17,-190.29"/>
</g>
<!-- Fatigue -->
<g id="node10" class="node">
<title>Fatigue</title>
<ellipse fill="none" stroke="black" cx="277.73" cy="-90" rx="38.56" ry="18"/>
<text text-anchor="middle" x="277.73" y="-84.95" font-family="Times,serif" font-size="14.00">Fatigue</text>
</g>
<!-- Lung Cancer&#45;&gt;Fatigue -->
<g id="edge10" class="edge">
<title>Lung Cancer&#45;&gt;Fatigue</title>
<path fill="none" stroke="black" d="M211.03,-215.63C209.96,-196.95 210.49,-166.86 221.73,-144 227.65,-131.95 237.53,-121.21 247.35,-112.6"/>
<polygon fill="black" stroke="black" points="249.56,-115.32 255.08,-106.27 245.12,-109.9 249.56,-115.32"/>
</g>
<!-- Genetics -->
<g id="node6" class="node">
<title>Genetics</title>
<ellipse fill="none" stroke="black" cx="274.73" cy="-306" rx="43.16" ry="18"/>
<text text-anchor="middle" x="274.73" y="-300.95" font-family="Times,serif" font-size="14.00">Genetics</text>
</g>
<!-- Genetics&#45;&gt;Lung Cancer -->
<g id="edge5" class="edge">
<title>Genetics&#45;&gt;Lung Cancer</title>
<path fill="none" stroke="black" d="M260.35,-288.76C252.79,-280.23 243.36,-269.58 234.89,-260.02"/>
<polygon fill="black" stroke="black" points="237.72,-257.93 228.47,-252.77 232.48,-262.57 237.72,-257.93"/>
</g>
<!-- Attention Disorder -->
<g id="node7" class="node">
<title>Attention Disorder</title>
<ellipse fill="none" stroke="black" cx="423.73" cy="-162" rx="80.52" ry="18"/>
<text text-anchor="middle" x="423.73" y="-156.95" font-family="Times,serif" font-size="14.00">Attention Disorder</text>
</g>
<!-- Genetics&#45;&gt;Attention Disorder -->
<g id="edge6" class="edge">
<title>Genetics&#45;&gt;Attention Disorder</title>
<path fill="none" stroke="black" d="M307.31,-293.97C329.08,-285.29 357.19,-271.41 376.73,-252 393.95,-234.89 406.33,-210.13 414.04,-191.07"/>
<polygon fill="black" stroke="black" points="417.3,-192.34 417.6,-181.75 410.76,-189.84 417.3,-192.34"/>
</g>
<!-- Car Accident -->
<g id="node11" class="node">
<title>Car Accident</title>
<ellipse fill="none" stroke="black" cx="310.73" cy="-18" rx="59.54" ry="18"/>
<text text-anchor="middle" x="310.73" y="-12.95" font-family="Times,serif" font-size="14.00">Car Accident</text>
</g>
<!-- Attention Disorder&#45;&gt;Car Accident -->
<g id="edge11" class="edge">
<title>Attention Disorder&#45;&gt;Car Accident</title>
<path fill="none" stroke="black" d="M410.1,-143.87C390.39,-119.11 353.82,-73.14 330.96,-44.42"/>
<polygon fill="black" stroke="black" points="333.97,-42.58 325,-36.93 328.49,-46.94 333.97,-42.58"/>
</g>
<!-- Allergy -->
<g id="node8" class="node">
<title>Allergy</title>
<ellipse fill="none" stroke="black" cx="328.73" cy="-234" rx="39.07" ry="18"/>
<text text-anchor="middle" x="328.73" y="-228.95" font-family="Times,serif" font-size="14.00">Allergy</text>
</g>
<!-- Allergy&#45;&gt;Coughing -->
<g id="edge7" class="edge">
<title>Allergy&#45;&gt;Coughing</title>
<path fill="none" stroke="black" d="M316.64,-216.41C310.61,-208.13 303.17,-197.92 296.43,-188.66"/>
<polygon fill="black" stroke="black" points="299.34,-186.71 290.62,-180.69 293.68,-190.84 299.34,-186.71"/>
</g>
<!-- Coughing&#45;&gt;Fatigue -->
<g id="edge8" class="edge">
<title>Coughing&#45;&gt;Fatigue</title>
<path fill="none" stroke="black" d="M277.73,-143.7C277.73,-136.41 277.73,-127.73 277.73,-119.54"/>
<polygon fill="black" stroke="black" points="281.23,-119.62 277.73,-109.62 274.23,-119.62 281.23,-119.62"/>
</g>
<!-- Fatigue&#45;&gt;Car Accident -->
<g id="edge12" class="edge">
<title>Fatigue&#45;&gt;Car Accident</title>
<path fill="none" stroke="black" d="M285.72,-72.05C289.31,-64.43 293.65,-55.23 297.69,-46.65"/>
<polygon fill="black" stroke="black" points="300.84,-48.18 301.94,-37.64 294.51,-45.2 300.84,-48.18"/>
</g>
</g>
</svg>