<?xml version="1.0" encoding="UTF-8" standalone="no"?>
<!DOCTYPE svg PUBLIC "-//W3C//DTD SVG 1.1//EN"
 "http://www.w3.org/Graphics/SVG/1.1/DTD/svg11.dtd">
<!-- Generated by graphviz version 9.0.0 (20230911.1827)
 -->
<!-- Pages: 1 -->
<svg width="267pt" height="188pt"
 viewBox="0.00 0.00 266.91 188.00" xmlns="http://www.w3.org/2000/svg" xmlns:xlink="http://www.w3.org/1999/xlink">
<g id="graph0" class="graph" transform="scale(1 1) rotate(0) translate(4 184)">
<polygon fill="white" stroke="none" points="-4,4 -4,-184 262.91,-184 262.91,4 -4,4"/>
<!-- T -->
<g id="node1" class="node">
<title>T</title>
<ellipse fill="none" stroke="black" cx="37" cy="-162" rx="27" ry="18"/>
<text text-anchor="middle" x="37" y="-156.95" font-family="Times,serif" font-size="14.00">T</text>
</g>
<!-- Y -->
<g id="node2" class="node">
<title>Y</title>
<ellipse fill="none" stroke="black" cx="27" cy="-18" rx="27" ry="18"/>
<text text-anchor="middle" x="27" y="-12.95" font-family="Times,serif" font-size="14.00">Y</text>
</g>
<!-- T&#45;&gt;Y -->
<g id="edge1" class="edge">
<title>T&#45;&gt;Y</title>
<path fill="none" stroke="black" d="M27.15,-144.97C21.49,-134.79 14.94,-121.1 12,-108 7.44,-87.65 11.68,-64.41 16.79,-46.78"/>
<polygon fill="black" stroke="black" points="20.12,-47.87 19.83,-37.28 13.45,-45.74 20.12,-47.87"/>
</g>
<!-- X -->
<g id="node3" class="node">
<title>X</title>
<ellipse fill="gray" stroke="gray" cx="48" cy="-90" rx="27" ry="18"/>
<text text-anchor="middle" x="48" y="-84.95" font-family="Times,serif" font-size="14.00">X</text>
</g>
<!-- T&#45;&gt;X -->
<g id="edge2" class="edge">
<title>T&#45;&gt;X</title>
<path fill="none" stroke="black" d="M39.72,-143.7C40.88,-136.32 42.26,-127.52 43.56,-119.25"/>
<polygon fill="black" stroke="black" points="46.98,-120.02 45.08,-109.6 40.07,-118.93 46.98,-120.02"/>
</g>
<!-- X&#45;&gt;Y -->
<g id="edge3" class="edge">
<title>X&#45;&gt;Y</title>
<path fill="none" stroke="black" d="M42.92,-72.05C40.62,-64.4 37.85,-55.16 35.27,-46.56"/>
<polygon fill="black" stroke="black" points="38.7,-45.81 32.47,-37.24 31.99,-47.82 38.7,-45.81"/>
</g>
<!-- interest -->
<g id="node4" class="node">
<title>interest</title>
<ellipse fill="none" stroke="black" cx="133" cy="-162" rx="38.04" ry="18"/>
<text text-anchor="middle" x="133" y="-156.95" font-family="Times,serif" font-size="14.00">interest</text>
</g>
<!-- performance -->
<g id="node5" class="node">
<title>performance</title>
<ellipse fill="none" stroke="black" cx="143" cy="-18" rx="58" ry="18"/>
<text text-anchor="middle" x="143" y="-12.95" font-family="Times,serif" font-size="14.00">performance</text>
</g>
<!-- interest&#45;&gt;performance -->
<g id="edge4" class="edge">
<title>interest&#45;&gt;performance</title>
<path fill="none" stroke="black" d="M134.23,-143.59C135.91,-119.61 138.98,-76.14 141,-47.42"/>
<polygon fill="black" stroke="black" points="144.48,-47.84 141.69,-37.62 137.49,-47.35 144.48,-47.84"/>
</g>
<!-- study hours -->
<g id="node6" class="node">
<title>study hours</title>
<ellipse fill="gray" stroke="gray" cx="205" cy="-90" rx="53.91" ry="18"/>
<text text-anchor="middle" x="205" y="-84.95" font-family="Times,serif" font-size="14.00">study hours</text>
</g>
<!-- interest&#45;&gt;study hours -->
<g id="edge5" class="edge">
<title>interest&#45;&gt;study hours</title>
<path fill="none" stroke="black" d="M148.98,-145.46C158.04,-136.65 169.59,-125.43 179.84,-115.46"/>
<polygon fill="black" stroke="black" points="182.25,-118 186.98,-108.52 177.37,-112.98 182.25,-118"/>
</g>
<!-- study hours&#45;&gt;performance -->
<g id="edge6" class="edge">
<title>study hours&#45;&gt;performance</title>
<path fill="none" stroke="black" d="M190.31,-72.41C182.82,-63.95 173.55,-53.49 165.21,-44.08"/>
<polygon fill="black" stroke="black" points="167.84,-41.77 158.59,-36.6 162.6,-46.41 167.84,-41.77"/>
</g>
</g>
</svg>